<svg width="76.201mm" height="50.806mm" version="1.1" viewBox="0 0 47.626 31.754" xmlns="http://www.w3.org/2000/svg"><defs><marker id="marker10636" overflow="visible" orient="auto"><path transform="matrix(-.3 0 0 -.3 .69 0)" d="m8.7186 4.0337-10.926-4.0177 10.926-4.0177c-1.7455 2.3721-1.7354 5.6175-6e-7 8.0354z" fill="#2980b9" fill-rule="evenodd" stroke="#2980b9" stroke-linejoin="round" stroke-width=".625"/></marker><marker id="marker9946" overflow="visible" orient="auto"><path transform="matrix(-.3 0 0 -.3 .69 0)" d="m8.7186 4.0337-10.926-4.0177 10.926-4.0177c-1.7455 2.3721-1.7354 5.6175-6e-7 8.0354z" fill="#2980b9" fill-rule="evenodd" stroke="#2980b9" stroke-linejoin="round" stroke-width=".625"/></marker><marker id="marker5230" overflow="visible" orient="auto"><path transform="matrix(-.3 0 0 -.3 .69 0)" d="m8.7186 4.0337-10.926-4.0177 10.926-4.0177c-1.7455 2.3721-1.7354 5.6175-6e-7 8.0354z" fill="#2980b9" fill-rule="evenodd" stroke="#2980b9" stroke-linejoin="round" stroke-width=".625"/></marker></defs><g transform="translate(-94.761 -181.56)"><path d="m138.65 209.8-40.466-2.5197 23.56-22.628z" fill="none" stroke="currentColor" stroke-width=".419"/><g fill="#848484" stroke="currentColor" stroke-width=".419"><circle cx="138.64" cy="209.66" r="2.1985"/><circle cx="121.67" cy="184.67" r="2.1985"/><circle cx="98.253" cy="207.17" r="2.1985"/></g><text x="118.36477" y="201.60905" fill="currentColor" font-family="sans-serif" font-size="4.7625px" letter-spacing="0px" stroke-width=".26458" word-spacing="0px" style="line-height:1.25" xml:space="preserve"><tspan x="118.36477" y="201.60905" font-family="'Fira Sans'" font-size="4.7625px" stroke-width=".26458">F</tspan></text><g fill="none" stroke="#2980b9" stroke-dasharray="0.4, 1.2" stroke-linecap="round" stroke-linejoin="round" stroke-width=".4"><path d="m119.1 196.83s-1.0216-4.307 1.1259-8.5259" marker-end="url(#marker5230)"/><path d="m122.01 200.4s7.6583 1.6442 12.879 6.7461" marker-end="url(#marker9946)"/><path d="m116.86 201.71s-4.8095 3.1226-14.033 4.3556" marker-end="url(#marker10636)"/></g></g></svg>
