<svg width="94.291mm" height="85.548mm" version="1.1" viewBox="0 0 67.351 61.106" xmlns="http://www.w3.org/2000/svg"><g transform="translate(-78.802 -55.939)"><g transform="translate(-.16195 -9.2195)"><path d="m86.093 112.88a0.3825 0.3825 0 0 0-0.31936 0.28112 0.3825 0.3825 0 0 0 0.27337 0.46715l27.034 7.1474c-0.0893 0.15715-0.20821 0.29922-0.3545 0.41703a0.071726 0.071726 0 0 0 0.0527 0.12661l2.6582-0.25167a0.071726 0.071726 0 0 0 0.0351-0.12919l-2.189-1.5327a0.071726 0.071726 0 0 0-0.10749 0.0837c0.068 0.17838 0.10051 0.36345 0.10026 0.54622l-27.034-7.1458a0.3825 0.3825 0 0 0-0.14934-0.01z" fill="currentColor"/><path d="m122.59 96.083a0.071726 0.071726 0 0 0-0.0512 0.03514l-1.2971 2.3358a0.071726 0.071726 0 0 0 0.0956 0.09974c0.17019-0.08614 0.35088-0.13779 0.53226-0.15658l-3.161 20.359a0.3825 0.3825 0 0 0 0.32039 0.4377 0.3825 0.3825 0 0 0 0.43563-0.32039l3.161-20.359c0.16495 0.07247 0.31794 0.17556 0.4501 0.30851a0.071726 0.071726 0 0 0 0.12144-0.06408l-0.52555-2.6195a0.071726 0.071726 0 0 0-0.0605-0.05633 0.071726 0.071726 0 0 0-0.0212 0z" fill="currentColor"/><path d="m85.116 72.547a0.3825 0.3825 0 0 0-0.39998 0.36328l-1.6366 33.493c-0.17192-0.0548-0.33559-0.1415-0.48111-0.25993a0.071726 0.071726 0 0 0-0.08578-4e-3 0.071726 0.071726 0 0 0-0.02739 0.0822l0.79892 2.5487a0.071726 0.071726 0 0 0 0.13281 6e-3l1.0449-2.4593-0.0098-2e-3a0.071726 0.071726 0 0 0 0.01395-0.0258 0.071726 0.071726 0 0 0-0.12299-0.0367l0.01344-0.0238c-0.16033 0.1036-0.33449 0.17422-0.51315 0.21187l1.6361-33.493a0.3825 0.3825 0 0 0-0.36329-0.40049z" color="#000000" fill="#f1c40f"/><g stroke-linecap="round"><path d="m120.18 95.318a0.3825 0.3825 0 0 0-0.14469 0.03617l-31.806 14.854c-0.03191-0.17739-0.03161-0.36237 0.0052-0.54622a0.071726 0.071726 0 0 0-0.06408-0.0858 0.071726 0.071726 0 0 0-0.05684 0.0196l-1.881 1.8965a0.071726 0.071726 0 0 0 0.05684 0.12299l2.6619-0.22634a0.071726 0.071726 0 0 0 0.02946-0.13333c-0.16634-0.0933-0.31002-0.21383-0.42685-0.35398l31.806-14.855a0.3825 0.3825 0 0 0 0.18552-0.50746 0.3825 0.3825 0 0 0-0.21653-0.19947 0.3825 0.3825 0 0 0-0.14831-0.02222z" color="#000000" fill="#e74c3c" style="-inkscape-stroke:none"/><path d="m119.61 93.582-2.6618 0.22428a0.071726 0.071726 0 0 0-0.0295 0.13488c0.16568 0.09296 0.30872 0.21351 0.4253 0.35295l-31.804 14.856a0.3825 0.3825 0 0 0-0.18345 0.50797 0.3825 0.3825 0 0 0 0.50746 0.18346l31.806-14.854c0.0322 0.17793 0.0322 0.36331-5e-3 0.54777a0.071726 0.071726 0 0 0 0.12092 0.0646l1.881-1.8965a0.071726 0.071726 0 0 0-0.0568-0.12092z" color="#000000" fill="#27ae60" style="-inkscape-stroke:none"/><path d="m88.229 71.302a0.071726 0.071726 0 0 0-0.04858 0.11627l1.6562 2.0975a0.071726 0.071726 0 0 0 0.12712-0.05064c-0.01378-0.18992 8e-3 -0.37598 0.06046-0.55035l29.635 18.174a0.3825 0.3825 0 0 0 0.5271-0.12712 0.3825 0.3825 0 0 0-0.12661-0.52555l-29.635-18.174c0.13076-0.12468 0.28535-0.22634 0.4594-0.29714a0.071726 0.071726 0 0 0-0.01137-0.13643l-2.6215-0.52555a0.071726 0.071726 0 0 0-0.0217-1e-3z" color="#000000" fill="#2980b9" style="-inkscape-stroke:none"/></g></g><circle cx="123.01" cy="83.827" r="2.1985" fill="#bababa" stroke="#9b59b6" stroke-width=".819"/><g fill="#8a8a8a" stroke="currentColor" stroke-width=".419"><circle cx="82.785" cy="102.77" r="2.1985"/><circle cx="85.3" cy="60.41" r="2.1985"/><circle cx="118.13" cy="112.86" r="2.1985"/></g><g font-family="sans-serif" letter-spacing="0px" stroke-width=".26458" word-spacing="0px"><text transform="rotate(-24.983)" x="53.657211" y="125.2824" fill="#27ae60" font-size="5.2917px" style="line-height:1.25" xml:space="preserve"><tspan x="53.657211" y="125.2824" fill="#27ae60" font-size="5.2917px" stroke-width=".26458">e</tspan></text><g font-size="4.7625px"><text transform="rotate(31.597)" x="122.17773" y="5.5711679" fill="#2980b9" style="line-height:1.25" xml:space="preserve"><tspan x="122.17773" y="5.5711679" fill="#2980b9" font-family="'Fira Sans'" font-size="4.7625px" stroke-width=".26458">e.next</tspan></text><text transform="rotate(-.02004)" x="85.491989" y="81.889244" fill="#e1b12c" style="line-height:1.25" xml:space="preserve"><tspan x="85.491989" y="81.889244" fill="#e1b12c" font-size="4.7625px" stroke-width=".26458">e.prev</tspan></text><text transform="rotate(-24.913)" x="49.52692" y="133.69304" fill="#e74c3c" style="line-height:1.25" xml:space="preserve"><tspan x="49.52692" y="133.69304" fill="#e74c3c" font-size="4.7625px" stroke-width=".26458">e.twin</tspan></text><text transform="rotate(-.02004)" x="126.86092" y="85.001549" fill="#9b59b6" style="line-height:1.25" xml:space="preserve"><tspan x="126.86092" y="85.001549" fill="#9b59b6" font-size="4.7625px" stroke-width=".26458">e.target</tspan></text></g></g></g></svg>
