ply
format ascii 1.0
element vertex 386
property float x
property float y
property float z
property float nx
property float ny
property float nz
element face 768
property list uchar uint vertex_indices
end_header
0 0 10 0 0 1
1.8374952 0 9.829731 0.18374951 0 0.9829731
1.7748841 0.47557876 9.829731 0.1774884 0.047557876 0.9829731
1.5913175 0.9187476 9.829731 0.15913175 0.091874756 0.9829731
1.2993053 1.2993053 9.829731 0.12993053 0.12993053 0.9829731
0.9187476 1.5913175 9.829731 0.091874756 0.15913175 0.9829731
0.47557876 1.7748841 9.829731 0.047557876 0.1774884 0.9829731
0.00000000000000011251413 1.8374952 9.829731 0.000000000000000011251413 0.18374951 0.9829731
-0.47557876 1.7748841 9.829731 -0.047557876 0.1774884 0.9829731
-0.9187476 1.5913175 9.829731 -0.091874756 0.15913175 0.9829731
-1.2993053 1.2993053 9.829731 -0.12993053 0.12993053 0.9829731
-1.5913175 0.9187476 9.829731 -0.15913175 0.091874756 0.9829731
-1.7748841 0.47557876 9.829731 -0.1774884 0.047557876 0.9829731
-1.8374952 0.00000000000000022502825 9.829731 -0.18374951 0.000000000000000022502827 0.9829731
-1.7748841 -0.47557876 9.829731 -0.1774884 -0.047557876 0.9829731
-1.5913175 -0.9187476 9.829731 -0.15913175 -0.091874756 0.9829731
-1.2993053 -1.2993053 9.829731 -0.12993053 -0.12993053 0.9829731
-0.9187476 -1.5913175 9.829731 -0.091874756 -0.15913175 0.9829731
-0.47557876 -1.7748841 9.829731 -0.047557876 -0.1774884 0.9829731
-0.0000000000000003375424 -1.8374952 9.829731 -0.00000000000000003375424 -0.18374951 0.9829731
0.47557876 -1.7748841 9.829731 0.047557876 -0.1774884 0.9829731
0.9187476 -1.5913175 9.829731 0.091874756 -0.15913175 0.9829731
1.2993053 -1.2993053 9.829731 0.12993053 -0.12993053 0.9829731
1.5913175 -0.9187476 9.829731 0.15913175 -0.091874756 0.9829731
1.7748841 -0.47557876 9.829731 0.1774884 -0.047557876 0.9829731
3.6124167 0 9.324722 0.36124167 0 0.9324722
3.4893265 0.9349622 9.324722 0.34893265 0.093496226 0.9324722
3.1284447 1.8062084 9.324722 0.31284446 0.18062083 0.9324722
2.5543642 2.5543642 9.324722 0.25543642 0.25543642 0.9324722
1.8062084 3.1284447 9.324722 0.18062083 0.31284446 0.9324722
0.9349622 3.4893265 9.324722 0.093496226 0.34893265 0.9324722
0.00000000000000022119672 3.6124167 9.324722 0.000000000000000022119673 0.36124167 0.9324722
-0.9349622 3.4893265 9.324722 -0.093496226 0.34893265 0.9324722
-1.8062084 3.1284447 9.324722 -0.18062083 0.31284446 0.9324722
-2.5543642 2.5543642 9.324722 -0.25543642 0.25543642 0.9324722
-3.1284447 1.8062084 9.324722 -0.31284446 0.18062083 0.9324722
-3.4893265 0.9349622 9.324722 -0.34893265 0.093496226 0.9324722
-3.6124167 0.00000000000000044239345 9.324722 -0.36124167 0.000000000000000044239346 0.9324722
-3.4893265 -0.9349622 9.324722 -0.34893265 -0.093496226 0.9324722
-3.1284447 -1.8062084 9.324722 -0.31284446 -0.18062083 0.9324722
-2.5543642 -2.5543642 9.324722 -0.25543642 -0.25543642 0.9324722
-1.8062084 -3.1284447 9.324722 -0.18062083 -0.31284446 0.9324722
-0.9349622 -3.4893265 9.324722 -0.093496226 -0.34893265 0.9324722
-0.0000000000000006635902 -3.6124167 9.324722 -0.000000000000000066359016 -0.36124167 0.9324722
0.9349622 -3.4893265 9.324722 0.093496226 -0.34893265 0.9324722
1.8062084 -3.1284447 9.324722 0.18062083 -0.31284446 0.9324722
2.5543642 -2.5543642 9.324722 0.25543642 -0.25543642 0.9324722
3.1284447 -1.8062084 9.324722 0.31284446 -0.18062083 0.9324722
3.4893265 -0.9349622 9.324722 0.34893265 -0.093496226 0.9324722
5.264322 0 8.5021715 0.52643216 0 0.85021716
5.0849442 1.3625067 8.5021715 0.50849444 0.13625067 0.85021716
4.5590363 2.632161 8.5021715 0.45590362 0.26321608 0.85021716
3.7224376 3.7224376 8.5021715 0.37224376 0.37224376 0.85021716
2.632161 4.5590363 8.5021715 0.26321608 0.45590362 0.85021716
1.3625067 5.0849442 8.5021715 0.13625067 0.50849444 0.85021716
0.00000000000000032234673 5.264322 8.5021715 0.000000000000000032234673 0.52643216 0.85021716
-1.3625067 5.0849442 8.5021715 -0.13625067 0.50849444 0.85021716
-2.632161 4.5590363 8.5021715 -0.26321608 0.45590362 0.85021716
-3.7224376 3.7224376 8.5021715 -0.37224376 0.37224376 0.85021716
-4.5590363 2.632161 8.5021715 -0.45590362 0.26321608 0.85021716
-5.0849442 1.3625067 8.5021715 -0.50849444 0.13625067 0.85021716
-5.264322 0.00000000000000064469345 8.5021715 -0.52643216 0.000000000000000064469345 0.85021716
-5.0849442 -1.3625067 8.5021715 -0.50849444 -0.13625067 0.85021716
-4.5590363 -2.632161 8.5021715 -0.45590362 -0.26321608 0.85021716
-3.7224376 -3.7224376 8.5021715 -0.37224376 -0.37224376 0.85021716
-2.632161 -4.5590363 8.5021715 -0.26321608 -0.45590362 0.85021716
-1.3625067 -5.0849442 8.5021715 -0.13625067 -0.50849444 0.85021716
-0.0000000000000009670402 -5.264322 8.5021715 -0.00000000000000009670402 -0.52643216 0.85021716
1.3625067 -5.0849442 8.5021715 0.13625067 -0.50849444 0.85021716
2.632161 -4.5590363 8.5021715 0.26321608 -0.45590362 0.85021716
3.7224376 -3.7224376 8.5021715 0.37224376 -0.37224376 0.85021716
4.5590363 -2.632161 8.5021715 0.45590362 -0.26321608 0.85021716
5.0849442 -1.3625067 8.5021715 0.50849444 -0.13625067 0.85021716
6.7369566 0 7.390089 0.6736956 0 0.7390089
6.5074 1.7436526 7.390089 0.65074 0.17436527 0.7390089
5.8343754 3.3684783 7.390089 0.58343756 0.3368478 0.7390089
4.7637477 4.7637477 7.390089 0.47637475 0.47637475 0.7390089
3.3684783 5.8343754 7.390089 0.3368478 0.58343756 0.7390089
1.7436526 6.5074 7.390089 0.17436527 0.65074 0.7390089
0.0000000000000004125196 6.7369566 7.390089 0.00000000000000004125196 0.6736956 0.7390089
-1.7436526 6.5074 7.390089 -0.17436527 0.65074 0.7390089
-3.3684783 5.8343754 7.390089 -0.3368478 0.58343756 0.7390089
-4.7637477 4.7637477 7.390089 -0.47637475 0.47637475 0.7390089
-5.8343754 3.3684783 7.390089 -0.58343756 0.3368478 0.7390089
-6.5074 1.7436526 7.390089 -0.65074 0.17436527 0.7390089
-6.7369566 0.0000000000000008250392 7.390089 -0.6736956 0.00000000000000008250392 0.7390089
-6.5074 -1.7436526 7.390089 -0.65074 -0.17436527 0.7390089
-5.8343754 -3.3684783 7.390089 -0.58343756 -0.3368478 0.7390089
-4.7637477 -4.7637477 7.390089 -0.47637475 -0.47637475 0.7390089
-3.3684783 -5.8343754 7.390089 -0.3368478 -0.58343756 0.7390089
-1.7436526 -6.5074 7.390089 -0.17436527 -0.65074 0.7390089
-0.0000000000000012375589 -6.7369566 7.390089 -0.00000000000000012375588 -0.6736956 0.7390089
1.7436526 -6.5074 7.390089 0.17436527 -0.65074 0.7390089
3.3684783 -5.8343754 7.390089 0.3368478 -0.58343756 0.7390089
4.7637477 -4.7637477 7.390089 0.47637475 -0.47637475 0.7390089
5.8343754 -3.3684783 7.390089 0.58343756 -0.3368478 0.7390089
6.5074 -1.7436526 7.390089 0.65074 -0.17436527 0.7390089
7.980172 0 6.026346 0.7980172 0 0.6026346
7.7082543 2.0654206 6.026346 0.77082545 0.20654206 0.6026346
6.9110317 3.990086 6.026346 0.6911032 0.3990086 0.6026346
5.6428337 5.6428337 6.026346 0.5642834 0.5642834 0.6026346
3.990086 6.9110317 6.026346 0.3990086 0.6911032 0.6026346
2.0654206 7.7082543 6.026346 0.20654206 0.77082545 0.6026346
0.0000000000000004886446 7.980172 6.026346 0.00000000000000004886446 0.7980172 0.6026346
-2.0654206 7.7082543 6.026346 -0.20654206 0.77082545 0.6026346
-3.990086 6.9110317 6.026346 -0.3990086 0.6911032 0.6026346
-5.6428337 5.6428337 6.026346 -0.5642834 0.5642834 0.6026346
-6.9110317 3.990086 6.026346 -0.6911032 0.3990086 0.6026346
-7.7082543 2.0654206 6.026346 -0.77082545 0.20654206 0.6026346
-7.980172 0.0000000000000009772893 6.026346 -0.7980172 0.00000000000000009772892 0.6026346
-7.7082543 -2.0654206 6.026346 -0.77082545 -0.20654206 0.6026346
-6.9110317 -3.990086 6.026346 -0.6911032 -0.3990086 0.6026346
-5.6428337 -5.6428337 6.026346 -0.5642834 -0.5642834 0.6026346
-3.990086 -6.9110317 6.026346 -0.3990086 -0.6911032 0.6026346
-2.0654206 -7.7082543 6.026346 -0.20654206 -0.77082545 0.6026346
-0.0000000000000014659339 -7.980172 6.026346 -0.00000000000000014659338 -0.7980172 0.6026346
2.0654206 -7.7082543 6.026346 0.20654206 -0.77082545 0.6026346
3.990086 -6.9110317 6.026346 0.3990086 -0.6911032 0.6026346
5.6428337 -5.6428337 6.026346 0.5642834 -0.5642834 0.6026346
6.9110317 -3.990086 6.026346 0.6911032 -0.3990086 0.6026346
7.7082543 -2.0654206 6.026346 0.77082545 -0.20654206 0.6026346
8.9516325 0 4.4573836 0.8951633 0 0.44573835
8.646613 2.316853 4.4573836 0.86466134 0.23168531 0.44573835
7.7523413 4.4758162 4.4573836 0.77523416 0.44758165 0.44573835
6.3297606 6.3297606 4.4573836 0.63297606 0.63297606 0.44573835
4.4758162 7.7523413 4.4573836 0.44758165 0.77523416 0.44573835
2.316853 8.646613 4.4573836 0.23168531 0.86466134 0.44573835
0.0000000000000005481294 8.9516325 4.4573836 0.000000000000000054812945 0.8951633 0.44573835
-2.316853 8.646613 4.4573836 -0.23168531 0.86466134 0.44573835
-4.4758162 7.7523413 4.4573836 -0.44758165 0.77523416 0.44573835
-6.3297606 6.3297606 4.4573836 -0.63297606 0.63297606 0.44573835
-7.7523413 4.4758162 4.4573836 -0.77523416 0.44758165 0.44573835
-8.646613 2.316853 4.4573836 -0.86466134 0.23168531 0.44573835
-8.9516325 0.0000000000000010962588 4.4573836 -0.8951633 0.00000000000000010962589 0.44573835
-8.646613 -2.316853 4.4573836 -0.86466134 -0.23168531 0.44573835
-7.7523413 -4.4758162 4.4573836 -0.77523416 -0.44758165 0.44573835
-6.3297606 -6.3297606 4.4573836 -0.63297606 -0.63297606 0.44573835
-4.4758162 -7.7523413 4.4573836 -0.44758165 -0.77523416 0.44573835
-2.316853 -8.646613 4.4573836 -0.23168531 -0.86466134 0.44573835
-0.0000000000000016443883 -8.9516325 4.4573836 -0.00000000000000016443883 -0.8951633 0.44573835
2.316853 -8.646613 4.4573836 0.23168531 -0.86466134 0.44573835
4.4758162 -7.7523413 4.4573836 0.44758165 -0.77523416 0.44573835
6.3297606 -6.3297606 4.4573836 0.63297606 -0.63297606 0.44573835
7.7523413 -4.4758162 4.4573836 0.77523416 -0.44758165 0.44573835
8.646613 -2.316853 4.4573836 0.86466134 -0.23168531 0.44573835
9.618257 0 2.73663 0.96182567 0 0.27366298
9.290523 2.489388 2.73663 0.92905223 0.2489388 0.27366298
8.329655 4.8091283 2.73663 0.83296543 0.48091283 0.27366298
6.801134 6.801134 2.73663 0.68011343 0.68011343 0.27366298
4.8091283 8.329655 2.73663 0.48091283 0.83296543 0.27366298
2.489388 9.290523 2.73663 0.2489388 0.92905223 0.27366298
0.00000000000000058894836 9.618257 2.73663 0.000000000000000058894836 0.96182567 0.27366298
-2.489388 9.290523 2.73663 -0.2489388 0.92905223 0.27366298
-4.8091283 8.329655 2.73663 -0.48091283 0.83296543 0.27366298
-6.801134 6.801134 2.73663 -0.68011343 0.68011343 0.27366298
-8.329655 4.8091283 2.73663 -0.83296543 0.48091283 0.27366298
-9.290523 2.489388 2.73663 -0.92905223 0.2489388 0.27366298
-9.618257 0.0000000000000011778967 2.73663 -0.96182567 0.00000000000000011778967 0.27366298
-9.290523 -2.489388 2.73663 -0.92905223 -0.2489388 0.27366298
-8.329655 -4.8091283 2.73663 -0.83296543 -0.48091283 0.27366298
-6.801134 -6.801134 2.73663 -0.68011343 -0.68011343 0.27366298
-4.8091283 -8.329655 2.73663 -0.48091283 -0.83296543 0.27366298
-2.489388 -9.290523 2.73663 -0.2489388 -0.92905223 0.27366298
-0.0000000000000017668451 -9.618257 2.73663 -0.00000000000000017668451 -0.96182567 0.27366298
2.489388 -9.290523 2.73663 0.2489388 -0.92905223 0.27366298
4.8091283 -8.329655 2.73663 0.48091283 -0.83296543 0.27366298
6.801134 -6.801134 2.73663 0.68011343 -0.68011343 0.27366298
8.329655 -4.8091283 2.73663 0.83296543 -0.48091283 0.27366298
9.290523 -2.489388 2.73663 0.92905223 -0.2489388 0.27366298
9.957342 0 0.9226836 0.99573416 0 0.09226836
9.618053 2.5771496 0.9226836 0.96180534 0.25771496 0.09226836
8.623311 4.978671 0.9226836 0.8623311 0.49786708 0.09226836
7.040904 7.040904 0.9226836 0.7040904 0.7040904 0.09226836
4.978671 8.623311 0.9226836 0.49786708 0.8623311 0.09226836
2.5771496 9.618053 0.9226836 0.25771496 0.96180534 0.09226836
0.00000000000000060971136 9.957342 0.9226836 0.00000000000000006097113 0.99573416 0.09226836
-2.5771496 9.618053 0.9226836 -0.25771496 0.96180534 0.09226836
-4.978671 8.623311 0.9226836 -0.49786708 0.8623311 0.09226836
-7.040904 7.040904 0.9226836 -0.7040904 0.7040904 0.09226836
-8.623311 4.978671 0.9226836 -0.8623311 0.49786708 0.09226836
-9.618053 2.5771496 0.9226836 -0.96180534 0.25771496 0.09226836
-9.957342 0.0000000000000012194227 0.9226836 -0.99573416 0.00000000000000012194226 0.09226836
-9.618053 -2.5771496 0.9226836 -0.96180534 -0.25771496 0.09226836
-8.623311 -4.978671 0.9226836 -0.8623311 -0.49786708 0.09226836
-7.040904 -7.040904 0.9226836 -0.7040904 -0.7040904 0.09226836
-4.978671 -8.623311 0.9226836 -0.49786708 -0.8623311 0.09226836
-2.5771496 -9.618053 0.9226836 -0.25771496 -0.96180534 0.09226836
-0.000000000000001829134 -9.957342 0.9226836 -0.0000000000000001829134 -0.99573416 0.09226836
2.5771496 -9.618053 0.9226836 0.25771496 -0.96180534 0.09226836
4.978671 -8.623311 0.9226836 0.49786708 -0.8623311 0.09226836
7.040904 -7.040904 0.9226836 0.7040904 -0.7040904 0.09226836
8.623311 -4.978671 0.9226836 0.8623311 -0.49786708 0.09226836
9.618053 -2.5771496 0.9226836 0.96180534 -0.25771496 0.09226836
9.957342 0 -0.9226836 0.99573416 0 -0.09226836
9.618053 2.5771496 -0.9226836 0.96180534 0.25771496 -0.09226836
8.623311 4.978671 -0.9226836 0.8623311 0.49786708 -0.09226836
7.040904 7.040904 -0.9226836 0.7040904 0.7040904 -0.09226836
4.978671 8.623311 -0.9226836 0.49786708 0.8623311 -0.09226836
2.5771496 9.618053 -0.9226836 0.25771496 0.96180534 -0.09226836
0.00000000000000060971136 9.957342 -0.9226836 0.00000000000000006097113 0.99573416 -0.09226836
-2.5771496 9.618053 -0.9226836 -0.25771496 0.96180534 -0.09226836
-4.978671 8.623311 -0.9226836 -0.49786708 0.8623311 -0.09226836
-7.040904 7.040904 -0.9226836 -0.7040904 0.7040904 -0.09226836
-8.623311 4.978671 -0.9226836 -0.8623311 0.49786708 -0.09226836
-9.618053 2.5771496 -0.9226836 -0.96180534 0.25771496 -0.09226836
-9.957342 0.0000000000000012194227 -0.9226836 -0.99573416 0.00000000000000012194226 -0.09226836
-9.618053 -2.5771496 -0.9226836 -0.96180534 -0.25771496 -0.09226836
-8.623311 -4.978671 -0.9226836 -0.8623311 -0.49786708 -0.09226836
-7.040904 -7.040904 -0.9226836 -0.7040904 -0.7040904 -0.09226836
-4.978671 -8.623311 -0.9226836 -0.49786708 -0.8623311 -0.09226836
-2.5771496 -9.618053 -0.9226836 -0.25771496 -0.96180534 -0.09226836
-0.000000000000001829134 -9.957342 -0.9226836 -0.0000000000000001829134 -0.99573416 -0.09226836
2.5771496 -9.618053 -0.9226836 0.25771496 -0.96180534 -0.09226836
4.978671 -8.623311 -0.9226836 0.49786708 -0.8623311 -0.09226836
7.040904 -7.040904 -0.9226836 0.7040904 -0.7040904 -0.09226836
8.623311 -4.978671 -0.9226836 0.8623311 -0.49786708 -0.09226836
9.618053 -2.5771496 -0.9226836 0.96180534 -0.25771496 -0.09226836
9.618257 0 -2.73663 0.96182567 0 -0.27366298
9.290523 2.489388 -2.73663 0.92905223 0.2489388 -0.27366298
8.329655 4.8091283 -2.73663 0.83296543 0.48091283 -0.27366298
6.801134 6.801134 -2.73663 0.68011343 0.68011343 -0.27366298
4.8091283 8.329655 -2.73663 0.48091283 0.83296543 -0.27366298
2.489388 9.290523 -2.73663 0.2489388 0.92905223 -0.27366298
0.00000000000000058894836 9.618257 -2.73663 0.000000000000000058894836 0.96182567 -0.27366298
-2.489388 9.290523 -2.73663 -0.2489388 0.92905223 -0.27366298
-4.8091283 8.329655 -2.73663 -0.48091283 0.83296543 -0.27366298
-6.801134 6.801134 -2.73663 -0.68011343 0.68011343 -0.27366298
-8.329655 4.8091283 -2.73663 -0.83296543 0.48091283 -0.27366298
-9.290523 2.489388 -2.73663 -0.92905223 0.2489388 -0.27366298
-9.618257 0.0000000000000011778967 -2.73663 -0.96182567 0.00000000000000011778967 -0.27366298
-9.290523 -2.489388 -2.73663 -0.92905223 -0.2489388 -0.27366298
-8.329655 -4.8091283 -2.73663 -0.83296543 -0.48091283 -0.27366298
-6.801134 -6.801134 -2.73663 -0.68011343 -0.68011343 -0.27366298
-4.8091283 -8.329655 -2.73663 -0.48091283 -0.83296543 -0.27366298
-2.489388 -9.290523 -2.73663 -0.2489388 -0.92905223 -0.27366298
-0.0000000000000017668451 -9.618257 -2.73663 -0.00000000000000017668451 -0.96182567 -0.27366298
2.489388 -9.290523 -2.73663 0.2489388 -0.92905223 -0.27366298
4.8091283 -8.329655 -2.73663 0.48091283 -0.83296543 -0.27366298
6.801134 -6.801134 -2.73663 0.68011343 -0.68011343 -0.27366298
8.329655 -4.8091283 -2.73663 0.83296543 -0.48091283 -0.27366298
9.290523 -2.489388 -2.73663 0.92905223 -0.2489388 -0.27366298
8.9516325 0 -4.4573836 0.8951633 0 -0.44573835
8.646613 2.316853 -4.4573836 0.86466134 0.23168531 -0.44573835
7.7523413 4.4758162 -4.4573836 0.77523416 0.44758165 -0.44573835
6.3297606 6.3297606 -4.4573836 0.63297606 0.63297606 -0.44573835
4.4758162 7.7523413 -4.4573836 0.44758165 0.77523416 -0.44573835
2.316853 8.646613 -4.4573836 0.23168531 0.86466134 -0.44573835
0.0000000000000005481294 8.9516325 -4.4573836 0.000000000000000054812945 0.8951633 -0.44573835
-2.316853 8.646613 -4.4573836 -0.23168531 0.86466134 -0.44573835
-4.4758162 7.7523413 -4.4573836 -0.44758165 0.77523416 -0.44573835
-6.3297606 6.3297606 -4.4573836 -0.63297606 0.63297606 -0.44573835
-7.7523413 4.4758162 -4.4573836 -0.77523416 0.44758165 -0.44573835
-8.646613 2.316853 -4.4573836 -0.86466134 0.23168531 -0.44573835
-8.9516325 0.0000000000000010962588 -4.4573836 -0.8951633 0.00000000000000010962589 -0.44573835
-8.646613 -2.316853 -4.4573836 -0.86466134 -0.23168531 -0.44573835
-7.7523413 -4.4758162 -4.4573836 -0.77523416 -0.44758165 -0.44573835
-6.3297606 -6.3297606 -4.4573836 -0.63297606 -0.63297606 -0.44573835
-4.4758162 -7.7523413 -4.4573836 -0.44758165 -0.77523416 -0.44573835
-2.316853 -8.646613 -4.4573836 -0.23168531 -0.86466134 -0.44573835
-0.0000000000000016443883 -8.9516325 -4.4573836 -0.00000000000000016443883 -0.8951633 -0.44573835
2.316853 -8.646613 -4.4573836 0.23168531 -0.86466134 -0.44573835
4.4758162 -7.7523413 -4.4573836 0.44758165 -0.77523416 -0.44573835
6.3297606 -6.3297606 -4.4573836 0.63297606 -0.63297606 -0.44573835
7.7523413 -4.4758162 -4.4573836 0.77523416 -0.44758165 -0.44573835
8.646613 -2.316853 -4.4573836 0.86466134 -0.23168531 -0.44573835
7.980172 0 -6.026346 0.7980172 0 -0.6026346
7.7082543 2.0654206 -6.026346 0.77082545 0.20654206 -0.6026346
6.9110317 3.990086 -6.026346 0.6911032 0.3990086 -0.6026346
5.6428337 5.6428337 -6.026346 0.5642834 0.5642834 -0.6026346
3.990086 6.9110317 -6.026346 0.3990086 0.6911032 -0.6026346
2.0654206 7.7082543 -6.026346 0.20654206 0.77082545 -0.6026346
0.0000000000000004886446 7.980172 -6.026346 0.00000000000000004886446 0.7980172 -0.6026346
-2.0654206 7.7082543 -6.026346 -0.20654206 0.77082545 -0.6026346
-3.990086 6.9110317 -6.026346 -0.3990086 0.6911032 -0.6026346
-5.6428337 5.6428337 -6.026346 -0.5642834 0.5642834 -0.6026346
-6.9110317 3.990086 -6.026346 -0.6911032 0.3990086 -0.6026346
-7.7082543 2.0654206 -6.026346 -0.77082545 0.20654206 -0.6026346
-7.980172 0.0000000000000009772893 -6.026346 -0.7980172 0.00000000000000009772892 -0.6026346
-7.7082543 -2.0654206 -6.026346 -0.77082545 -0.20654206 -0.6026346
-6.9110317 -3.990086 -6.026346 -0.6911032 -0.3990086 -0.6026346
-5.6428337 -5.6428337 -6.026346 -0.5642834 -0.5642834 -0.6026346
-3.990086 -6.9110317 -6.026346 -0.3990086 -0.6911032 -0.6026346
-2.0654206 -7.7082543 -6.026346 -0.20654206 -0.77082545 -0.6026346
-0.0000000000000014659339 -7.980172 -6.026346 -0.00000000000000014659338 -0.7980172 -0.6026346
2.0654206 -7.7082543 -6.026346 0.20654206 -0.77082545 -0.6026346
3.990086 -6.9110317 -6.026346 0.3990086 -0.6911032 -0.6026346
5.6428337 -5.6428337 -6.026346 0.5642834 -0.5642834 -0.6026346
6.9110317 -3.990086 -6.026346 0.6911032 -0.3990086 -0.6026346
7.7082543 -2.0654206 -6.026346 0.77082545 -0.20654206 -0.6026346
6.7369566 0 -7.390089 0.6736956 0 -0.7390089
6.5074 1.7436526 -7.390089 0.65074 0.17436527 -0.7390089
5.8343754 3.3684783 -7.390089 0.58343756 0.3368478 -0.7390089
4.7637477 4.7637477 -7.390089 0.47637475 0.47637475 -0.7390089
3.3684783 5.8343754 -7.390089 0.3368478 0.58343756 -0.7390089
1.7436526 6.5074 -7.390089 0.17436527 0.65074 -0.7390089
0.0000000000000004125196 6.7369566 -7.390089 0.00000000000000004125196 0.6736956 -0.7390089
-1.7436526 6.5074 -7.390089 -0.17436527 0.65074 -0.7390089
-3.3684783 5.8343754 -7.390089 -0.3368478 0.58343756 -0.7390089
-4.7637477 4.7637477 -7.390089 -0.47637475 0.47637475 -0.7390089
-5.8343754 3.3684783 -7.390089 -0.58343756 0.3368478 -0.7390089
-6.5074 1.7436526 -7.390089 -0.65074 0.17436527 -0.7390089
-6.7369566 0.0000000000000008250392 -7.390089 -0.6736956 0.00000000000000008250392 -0.7390089
-6.5074 -1.7436526 -7.390089 -0.65074 -0.17436527 -0.7390089
-5.8343754 -3.3684783 -7.390089 -0.58343756 -0.3368478 -0.7390089
-4.7637477 -4.7637477 -7.390089 -0.47637475 -0.47637475 -0.7390089
-3.3684783 -5.8343754 -7.390089 -0.3368478 -0.58343756 -0.7390089
-1.7436526 -6.5074 -7.390089 -0.17436527 -0.65074 -0.7390089
-0.0000000000000012375589 -6.7369566 -7.390089 -0.00000000000000012375588 -0.6736956 -0.7390089
1.7436526 -6.5074 -7.390089 0.17436527 -0.65074 -0.7390089
3.3684783 -5.8343754 -7.390089 0.3368478 -0.58343756 -0.7390089
4.7637477 -4.7637477 -7.390089 0.47637475 -0.47637475 -0.7390089
5.8343754 -3.3684783 -7.390089 0.58343756 -0.3368478 -0.7390089
6.5074 -1.7436526 -7.390089 0.65074 -0.17436527 -0.7390089
5.264322 0 -8.5021715 0.52643216 0 -0.85021716
5.0849442 1.3625067 -8.5021715 0.50849444 0.13625067 -0.85021716
4.5590363 2.632161 -8.5021715 0.45590362 0.26321608 -0.85021716
3.7224376 3.7224376 -8.5021715 0.37224376 0.37224376 -0.85021716
2.632161 4.5590363 -8.5021715 0.26321608 0.45590362 -0.85021716
1.3625067 5.0849442 -8.5021715 0.13625067 0.50849444 -0.85021716
0.00000000000000032234673 5.264322 -8.5021715 0.000000000000000032234673 0.52643216 -0.85021716
-1.3625067 5.0849442 -8.5021715 -0.13625067 0.50849444 -0.85021716
-2.632161 4.5590363 -8.5021715 -0.26321608 0.45590362 -0.85021716
-3.7224376 3.7224376 -8.5021715 -0.37224376 0.37224376 -0.85021716
-4.5590363 2.632161 -8.5021715 -0.45590362 0.26321608 -0.85021716
-5.0849442 1.3625067 -8.5021715 -0.50849444 0.13625067 -0.85021716
-5.264322 0.00000000000000064469345 -8.5021715 -0.52643216 0.000000000000000064469345 -0.85021716
-5.0849442 -1.3625067 -8.5021715 -0.50849444 -0.13625067 -0.85021716
-4.5590363 -2.632161 -8.5021715 -0.45590362 -0.26321608 -0.85021716
-3.7224376 -3.7224376 -8.5021715 -0.37224376 -0.37224376 -0.85021716
-2.632161 -4.5590363 -8.5021715 -0.26321608 -0.45590362 -0.85021716
-1.3625067 -5.0849442 -8.5021715 -0.13625067 -0.50849444 -0.85021716
-0.0000000000000009670402 -5.264322 -8.5021715 -0.00000000000000009670402 -0.52643216 -0.85021716
1.3625067 -5.0849442 -8.5021715 0.13625067 -0.50849444 -0.85021716
2.632161 -4.5590363 -8.5021715 0.26321608 -0.45590362 -0.85021716
3.7224376 -3.7224376 -8.5021715 0.37224376 -0.37224376 -0.85021716
4.5590363 -2.632161 -8.5021715 0.45590362 -0.26321608 -0.85021716
5.0849442 -1.3625067 -8.5021715 0.50849444 -0.13625067 -0.85021716
3.6124167 0 -9.324722 0.36124167 0 -0.9324722
3.4893265 0.9349622 -9.324722 0.34893265 0.093496226 -0.9324722
3.1284447 1.8062084 -9.324722 0.31284446 0.18062083 -0.9324722
2.5543642 2.5543642 -9.324722 0.25543642 0.25543642 -0.9324722
1.8062084 3.1284447 -9.324722 0.18062083 0.31284446 -0.9324722
0.9349622 3.4893265 -9.324722 0.093496226 0.34893265 -0.9324722
0.00000000000000022119672 3.6124167 -9.324722 0.000000000000000022119673 0.36124167 -0.9324722
-0.9349622 3.4893265 -9.324722 -0.093496226 0.34893265 -0.9324722
-1.8062084 3.1284447 -9.324722 -0.18062083 0.31284446 -0.9324722
-2.5543642 2.5543642 -9.324722 -0.25543642 0.25543642 -0.9324722
-3.1284447 1.8062084 -9.324722 -0.31284446 0.18062083 -0.9324722
-3.4893265 0.9349622 -9.324722 -0.34893265 0.093496226 -0.9324722
-3.6124167 0.00000000000000044239345 -9.324722 -0.36124167 0.000000000000000044239346 -0.9324722
-3.4893265 -0.9349622 -9.324722 -0.34893265 -0.093496226 -0.9324722
-3.1284447 -1.8062084 -9.324722 -0.31284446 -0.18062083 -0.9324722
-2.5543642 -2.5543642 -9.324722 -0.25543642 -0.25543642 -0.9324722
-1.8062084 -3.1284447 -9.324722 -0.18062083 -0.31284446 -0.9324722
-0.9349622 -3.4893265 -9.324722 -0.093496226 -0.34893265 -0.9324722
-0.0000000000000006635902 -3.6124167 -9.324722 -0.000000000000000066359016 -0.36124167 -0.9324722
0.9349622 -3.4893265 -9.324722 0.093496226 -0.34893265 -0.9324722
1.8062084 -3.1284447 -9.324722 0.18062083 -0.31284446 -0.9324722
2.5543642 -2.5543642 -9.324722 0.25543642 -0.25543642 -0.9324722
3.1284447 -1.8062084 -9.324722 0.31284446 -0.18062083 -0.9324722
3.4893265 -0.9349622 -9.324722 0.34893265 -0.093496226 -0.9324722
1.8374952 0 -9.829731 0.18374951 0 -0.9829731
1.7748841 0.47557876 -9.829731 0.1774884 0.047557876 -0.9829731
1.5913175 0.9187476 -9.829731 0.15913175 0.091874756 -0.9829731
1.2993053 1.2993053 -9.829731 0.12993053 0.12993053 -0.9829731
0.9187476 1.5913175 -9.829731 0.091874756 0.15913175 -0.9829731
0.47557876 1.7748841 -9.829731 0.047557876 0.1774884 -0.9829731
0.00000000000000011251413 1.8374952 -9.829731 0.000000000000000011251413 0.18374951 -0.9829731
-0.47557876 1.7748841 -9.829731 -0.047557876 0.1774884 -0.9829731
-0.9187476 1.5913175 -9.829731 -0.091874756 0.15913175 -0.9829731
-1.2993053 1.2993053 -9.829731 -0.12993053 0.12993053 -0.9829731
-1.5913175 0.9187476 -9.829731 -0.15913175 0.091874756 -0.9829731
-1.7748841 0.47557876 -9.829731 -0.1774884 0.047557876 -0.9829731
-1.8374952 0.00000000000000022502825 -9.829731 -0.18374951 0.000000000000000022502827 -0.9829731
-1.7748841 -0.47557876 -9.829731 -0.1774884 -0.047557876 -0.9829731
-1.5913175 -0.9187476 -9.829731 -0.15913175 -0.091874756 -0.9829731
-1.2993053 -1.2993053 -9.829731 -0.12993053 -0.12993053 -0.9829731
-0.9187476 -1.5913175 -9.829731 -0.091874756 -0.15913175 -0.9829731
-0.47557876 -1.7748841 -9.829731 -0.047557876 -0.1774884 -0.9829731
-0.0000000000000003375424 -1.8374952 -9.829731 -0.00000000000000003375424 -0.18374951 -0.9829731
0.47557876 -1.7748841 -9.829731 0.047557876 -0.1774884 -0.9829731
0.9187476 -1.5913175 -9.829731 0.091874756 -0.15913175 -0.9829731
1.2993053 -1.2993053 -9.829731 0.12993053 -0.12993053 -0.9829731
1.5913175 -0.9187476 -9.829731 0.15913175 -0.091874756 -0.9829731
1.7748841 -0.47557876 -9.829731 0.1774884 -0.047557876 -0.9829731
0 0 -10 0 0 -1
3 0 1 2
3 0 2 3
3 0 3 4
3 0 4 5
3 0 5 6
3 0 6 7
3 0 7 8
3 0 8 9
3 0 9 10
3 0 10 11
3 0 11 12
3 0 12 13
3 0 13 14
3 0 14 15
3 0 15 16
3 0 16 17
3 0 17 18
3 0 18 19
3 0 19 20
3 0 20 21
3 0 21 22
3 0 22 23
3 0 23 24
3 0 24 1
3 1 26 2
3 1 25 26
3 2 27 3
3 2 26 27
3 3 28 4
3 3 27 28
3 4 29 5
3 4 28 29
3 5 30 6
3 5 29 30
3 6 31 7
3 6 30 31
3 7 32 8
3 7 31 32
3 8 33 9
3 8 32 33
3 9 34 10
3 9 33 34
3 10 35 11
3 10 34 35
3 11 36 12
3 11 35 36
3 12 37 13
3 12 36 37
3 13 38 14
3 13 37 38
3 14 39 15
3 14 38 39
3 15 40 16
3 15 39 40
3 16 41 17
3 16 40 41
3 17 42 18
3 17 41 42
3 18 43 19
3 18 42 43
3 19 44 20
3 19 43 44
3 20 45 21
3 20 44 45
3 21 46 22
3 21 45 46
3 22 47 23
3 22 46 47
3 23 48 24
3 23 47 48
3 24 25 1
3 24 48 25
3 25 50 26
3 25 49 50
3 26 51 27
3 26 50 51
3 27 52 28
3 27 51 52
3 28 53 29
3 28 52 53
3 29 54 30
3 29 53 54
3 30 55 31
3 30 54 55
3 31 56 32
3 31 55 56
3 32 57 33
3 32 56 57
3 33 58 34
3 33 57 58
3 34 59 35
3 34 58 59
3 35 60 36
3 35 59 60
3 36 61 37
3 36 60 61
3 37 62 38
3 37 61 62
3 38 63 39
3 38 62 63
3 39 64 40
3 39 63 64
3 40 65 41
3 40 64 65
3 41 66 42
3 41 65 66
3 42 67 43
3 42 66 67
3 43 68 44
3 43 67 68
3 44 69 45
3 44 68 69
3 45 70 46
3 45 69 70
3 46 71 47
3 46 70 71
3 47 72 48
3 47 71 72
3 48 49 25
3 48 72 49
3 49 74 50
3 49 73 74
3 50 75 51
3 50 74 75
3 51 76 52
3 51 75 76
3 52 77 53
3 52 76 77
3 53 78 54
3 53 77 78
3 54 79 55
3 54 78 79
3 55 80 56
3 55 79 80
3 56 81 57
3 56 80 81
3 57 82 58
3 57 81 82
3 58 83 59
3 58 82 83
3 59 84 60
3 59 83 84
3 60 85 61
3 60 84 85
3 61 86 62
3 61 85 86
3 62 87 63
3 62 86 87
3 63 88 64
3 63 87 88
3 64 89 65
3 64 88 89
3 65 90 66
3 65 89 90
3 66 91 67
3 66 90 91
3 67 92 68
3 67 91 92
3 68 93 69
3 68 92 93
3 69 94 70
3 69 93 94
3 70 95 71
3 70 94 95
3 71 96 72
3 71 95 96
3 72 73 49
3 72 96 73
3 73 98 74
3 73 97 98
3 74 99 75
3 74 98 99
3 75 100 76
3 75 99 100
3 76 101 77
3 76 100 101
3 77 102 78
3 77 101 102
3 78 103 79
3 78 102 103
3 79 104 80
3 79 103 104
3 80 105 81
3 80 104 105
3 81 106 82
3 81 105 106
3 82 107 83
3 82 106 107
3 83 108 84
3 83 107 108
3 84 109 85
3 84 108 109
3 85 110 86
3 85 109 110
3 86 111 87
3 86 110 111
3 87 112 88
3 87 111 112
3 88 113 89
3 88 112 113
3 89 114 90
3 89 113 114
3 90 115 91
3 90 114 115
3 91 116 92
3 91 115 116
3 92 117 93
3 92 116 117
3 93 118 94
3 93 117 118
3 94 119 95
3 94 118 119
3 95 120 96
3 95 119 120
3 96 97 73
3 96 120 97
3 97 122 98
3 97 121 122
3 98 123 99
3 98 122 123
3 99 124 100
3 99 123 124
3 100 125 101
3 100 124 125
3 101 126 102
3 101 125 126
3 102 127 103
3 102 126 127
3 103 128 104
3 103 127 128
3 104 129 105
3 104 128 129
3 105 130 106
3 105 129 130
3 106 131 107
3 106 130 131
3 107 132 108
3 107 131 132
3 108 133 109
3 108 132 133
3 109 134 110
3 109 133 134
3 110 135 111
3 110 134 135
3 111 136 112
3 111 135 136
3 112 137 113
3 112 136 137
3 113 138 114
3 113 137 138
3 114 139 115
3 114 138 139
3 115 140 116
3 115 139 140
3 116 141 117
3 116 140 141
3 117 142 118
3 117 141 142
3 118 143 119
3 118 142 143
3 119 144 120
3 119 143 144
3 120 121 97
3 120 144 121
3 121 146 122
3 121 145 146
3 122 147 123
3 122 146 147
3 123 148 124
3 123 147 148
3 124 149 125
3 124 148 149
3 125 150 126
3 125 149 150
3 126 151 127
3 126 150 151
3 127 152 128
3 127 151 152
3 128 153 129
3 128 152 153
3 129 154 130
3 129 153 154
3 130 155 131
3 130 154 155
3 131 156 132
3 131 155 156
3 132 157 133
3 132 156 157
3 133 158 134
3 133 157 158
3 134 159 135
3 134 158 159
3 135 160 136
3 135 159 160
3 136 161 137
3 136 160 161
3 137 162 138
3 137 161 162
3 138 163 139
3 138 162 163
3 139 164 140
3 139 163 164
3 140 165 141
3 140 164 165
3 141 166 142
3 141 165 166
3 142 167 143
3 142 166 167
3 143 168 144
3 143 167 168
3 144 145 121
3 144 168 145
3 145 170 146
3 145 169 170
3 146 171 147
3 146 170 171
3 147 172 148
3 147 171 172
3 148 173 149
3 148 172 173
3 149 174 150
3 149 173 174
3 150 175 151
3 150 174 175
3 151 176 152
3 151 175 176
3 152 177 153
3 152 176 177
3 153 178 154
3 153 177 178
3 154 179 155
3 154 178 179
3 155 180 156
3 155 179 180
3 156 181 157
3 156 180 181
3 157 182 158
3 157 181 182
3 158 183 159
3 158 182 183
3 159 184 160
3 159 183 184
3 160 185 161
3 160 184 185
3 161 186 162
3 161 185 186
3 162 187 163
3 162 186 187
3 163 188 164
3 163 187 188
3 164 189 165
3 164 188 189
3 165 190 166
3 165 189 190
3 166 191 167
3 166 190 191
3 167 192 168
3 167 191 192
3 168 169 145
3 168 192 169
3 169 194 170
3 169 193 194
3 170 195 171
3 170 194 195
3 171 196 172
3 171 195 196
3 172 197 173
3 172 196 197
3 173 198 174
3 173 197 198
3 174 199 175
3 174 198 199
3 175 200 176
3 175 199 200
3 176 201 177
3 176 200 201
3 177 202 178
3 177 201 202
3 178 203 179
3 178 202 203
3 179 204 180
3 179 203 204
3 180 205 181
3 180 204 205
3 181 206 182
3 181 205 206
3 182 207 183
3 182 206 207
3 183 208 184
3 183 207 208
3 184 209 185
3 184 208 209
3 185 210 186
3 185 209 210
3 186 211 187
3 186 210 211
3 187 212 188
3 187 211 212
3 188 213 189
3 188 212 213
3 189 214 190
3 189 213 214
3 190 215 191
3 190 214 215
3 191 216 192
3 191 215 216
3 192 193 169
3 192 216 193
3 193 218 194
3 193 217 218
3 194 219 195
3 194 218 219
3 195 220 196
3 195 219 220
3 196 221 197
3 196 220 221
3 197 222 198
3 197 221 222
3 198 223 199
3 198 222 223
3 199 224 200
3 199 223 224
3 200 225 201
3 200 224 225
3 201 226 202
3 201 225 226
3 202 227 203
3 202 226 227
3 203 228 204
3 203 227 228
3 204 229 205
3 204 228 229
3 205 230 206
3 205 229 230
3 206 231 207
3 206 230 231
3 207 232 208
3 207 231 232
3 208 233 209
3 208 232 233
3 209 234 210
3 209 233 234
3 210 235 211
3 210 234 235
3 211 236 212
3 211 235 236
3 212 237 213
3 212 236 237
3 213 238 214
3 213 237 238
3 214 239 215
3 214 238 239
3 215 240 216
3 215 239 240
3 216 217 193
3 216 240 217
3 217 242 218
3 217 241 242
3 218 243 219
3 218 242 243
3 219 244 220
3 219 243 244
3 220 245 221
3 220 244 245
3 221 246 222
3 221 245 246
3 222 247 223
3 222 246 247
3 223 248 224
3 223 247 248
3 224 249 225
3 224 248 249
3 225 250 226
3 225 249 250
3 226 251 227
3 226 250 251
3 227 252 228
3 227 251 252
3 228 253 229
3 228 252 253
3 229 254 230
3 229 253 254
3 230 255 231
3 230 254 255
3 231 256 232
3 231 255 256
3 232 257 233
3 232 256 257
3 233 258 234
3 233 257 258
3 234 259 235
3 234 258 259
3 235 260 236
3 235 259 260
3 236 261 237
3 236 260 261
3 237 262 238
3 237 261 262
3 238 263 239
3 238 262 263
3 239 264 240
3 239 263 264
3 240 241 217
3 240 264 241
3 241 266 242
3 241 265 266
3 242 267 243
3 242 266 267
3 243 268 244
3 243 267 268
3 244 269 245
3 244 268 269
3 245 270 246
3 245 269 270
3 246 271 247
3 246 270 271
3 247 272 248
3 247 271 272
3 248 273 249
3 248 272 273
3 249 274 250
3 249 273 274
3 250 275 251
3 250 274 275
3 251 276 252
3 251 275 276
3 252 277 253
3 252 276 277
3 253 278 254
3 253 277 278
3 254 279 255
3 254 278 279
3 255 280 256
3 255 279 280
3 256 281 257
3 256 280 281
3 257 282 258
3 257 281 282
3 258 283 259
3 258 282 283
3 259 284 260
3 259 283 284
3 260 285 261
3 260 284 285
3 261 286 262
3 261 285 286
3 262 287 263
3 262 286 287
3 263 288 264
3 263 287 288
3 264 265 241
3 264 288 265
3 265 290 266
3 265 289 290
3 266 291 267
3 266 290 291
3 267 292 268
3 267 291 292
3 268 293 269
3 268 292 293
3 269 294 270
3 269 293 294
3 270 295 271
3 270 294 295
3 271 296 272
3 271 295 296
3 272 297 273
3 272 296 297
3 273 298 274
3 273 297 298
3 274 299 275
3 274 298 299
3 275 300 276
3 275 299 300
3 276 301 277
3 276 300 301
3 277 302 278
3 277 301 302
3 278 303 279
3 278 302 303
3 279 304 280
3 279 303 304
3 280 305 281
3 280 304 305
3 281 306 282
3 281 305 306
3 282 307 283
3 282 306 307
3 283 308 284
3 283 307 308
3 284 309 285
3 284 308 309
3 285 310 286
3 285 309 310
3 286 311 287
3 286 310 311
3 287 312 288
3 287 311 312
3 288 289 265
3 288 312 289
3 289 314 290
3 289 313 314
3 290 315 291
3 290 314 315
3 291 316 292
3 291 315 316
3 292 317 293
3 292 316 317
3 293 318 294
3 293 317 318
3 294 319 295
3 294 318 319
3 295 320 296
3 295 319 320
3 296 321 297
3 296 320 321
3 297 322 298
3 297 321 322
3 298 323 299
3 298 322 323
3 299 324 300
3 299 323 324
3 300 325 301
3 300 324 325
3 301 326 302
3 301 325 326
3 302 327 303
3 302 326 327
3 303 328 304
3 303 327 328
3 304 329 305
3 304 328 329
3 305 330 306
3 305 329 330
3 306 331 307
3 306 330 331
3 307 332 308
3 307 331 332
3 308 333 309
3 308 332 333
3 309 334 310
3 309 333 334
3 310 335 311
3 310 334 335
3 311 336 312
3 311 335 336
3 312 313 289
3 312 336 313
3 313 338 314
3 313 337 338
3 314 339 315
3 314 338 339
3 315 340 316
3 315 339 340
3 316 341 317
3 316 340 341
3 317 342 318
3 317 341 342
3 318 343 319
3 318 342 343
3 319 344 320
3 319 343 344
3 320 345 321
3 320 344 345
3 321 346 322
3 321 345 346
3 322 347 323
3 322 346 347
3 323 348 324
3 323 347 348
3 324 349 325
3 324 348 349
3 325 350 326
3 325 349 350
3 326 351 327
3 326 350 351
3 327 352 328
3 327 351 352
3 328 353 329
3 328 352 353
3 329 354 330
3 329 353 354
3 330 355 331
3 330 354 355
3 331 356 332
3 331 355 356
3 332 357 333
3 332 356 357
3 333 358 334
3 333 357 358
3 334 359 335
3 334 358 359
3 335 360 336
3 335 359 360
3 336 337 313
3 336 360 337
3 337 362 338
3 337 361 362
3 338 363 339
3 338 362 363
3 339 364 340
3 339 363 364
3 340 365 341
3 340 364 365
3 341 366 342
3 341 365 366
3 342 367 343
3 342 366 367
3 343 368 344
3 343 367 368
3 344 369 345
3 344 368 369
3 345 370 346
3 345 369 370
3 346 371 347
3 346 370 371
3 347 372 348
3 347 371 372
3 348 373 349
3 348 372 373
3 349 374 350
3 349 373 374
3 350 375 351
3 350 374 375
3 351 376 352
3 351 375 376
3 352 377 353
3 352 376 377
3 353 378 354
3 353 377 378
3 354 379 355
3 354 378 379
3 355 380 356
3 355 379 380
3 356 381 357
3 356 380 381
3 357 382 358
3 357 381 382
3 358 383 359
3 358 382 383
3 359 384 360
3 359 383 384
3 360 361 337
3 360 384 361
3 385 362 361
3 385 363 362
3 385 364 363
3 385 365 364
3 385 366 365
3 385 367 366
3 385 368 367
3 385 369 368
3 385 370 369
3 385 371 370
3 385 372 371
3 385 373 372
3 385 374 373
3 385 375 374
3 385 376 375
3 385 377 376
3 385 378 377
3 385 379 378
3 385 380 379
3 385 381 380
3 385 382 381
3 385 383 382
3 385 384 383
3 385 361 384
