<?xml version="1.0" encoding="UTF-8" standalone="no"?>
<!-- Created with Inkscape (http://www.inkscape.org/) -->

<svg
   width="100.291mm"
   height="99.204002mm"
   viewBox="0 0 71.636429 70.860006"
   version="1.1"
   id="svg8"
   inkscape:version="1.2.2 (b0a8486541, 2022-12-01)"
   sodipodi:docname="diagram.svg"
   xmlns:inkscape="http://www.inkscape.org/namespaces/inkscape"
   xmlns:sodipodi="http://sodipodi.sourceforge.net/DTD/sodipodi-0.dtd"
   xmlns="http://www.w3.org/2000/svg"
   xmlns:svg="http://www.w3.org/2000/svg"
   xmlns:rdf="http://www.w3.org/1999/02/22-rdf-syntax-ns#"
   xmlns:cc="http://creativecommons.org/ns#"
   xmlns:dc="http://purl.org/dc/elements/1.1/">
  <defs
     id="defs2">
    <marker
       inkscape:isstock="true"
       style="overflow:visible"
       id="marker6308"
       refX="0"
       refY="0"
       orient="auto"
       inkscape:stockid="Arrow2Send">
      <path
         transform="matrix(-0.3,0,0,-0.3,0.69,0)"
         d="M 8.7185878,4.0337352 -2.2072895,0.01601326 8.7185884,-4.0017078 c -1.7454984,2.3720609 -1.7354408,5.6174519 -6e-7,8.035443 z"
         style="fill:#f1c40f;fill-opacity:1;fill-rule:evenodd;stroke:#f1c40f;stroke-width:0.625;stroke-linejoin:round;stroke-opacity:1"
         id="path6306"
         inkscape:connector-curvature="0" />
    </marker>
    <marker
       inkscape:stockid="Arrow2Mend"
       orient="auto"
       refY="0"
       refX="0"
       id="Arrow2Mend"
       style="overflow:visible"
       inkscape:isstock="true">
      <path
         id="path858"
         style="fill:#000000;fill-opacity:1;fill-rule:evenodd;stroke:#000000;stroke-width:0.625;stroke-linejoin:round;stroke-opacity:1"
         d="M 8.7185878,4.0337352 -2.2072895,0.01601326 8.7185884,-4.0017078 c -1.7454984,2.3720609 -1.7354408,5.6174519 -6e-7,8.035443 z"
         transform="scale(-0.6)"
         inkscape:connector-curvature="0" />
    </marker>
    <marker
       inkscape:stockid="Arrow1Send"
       orient="auto"
       refY="0"
       refX="0"
       id="Arrow1Send"
       style="overflow:visible"
       inkscape:isstock="true">
      <path
         id="path846"
         d="M 0,0 5,-5 -12.5,0 5,5 Z"
         style="fill:#000000;fill-opacity:1;fill-rule:evenodd;stroke:#000000;stroke-width:1pt;stroke-opacity:1"
         transform="matrix(-0.2,0,0,-0.2,-1.2,0)"
         inkscape:connector-curvature="0" />
    </marker>
    <marker
       inkscape:stockid="Arrow1Mend"
       orient="auto"
       refY="0"
       refX="0"
       id="marker4790"
       style="overflow:visible"
       inkscape:isstock="true">
      <path
         id="path4788"
         d="M 0,0 5,-5 -12.5,0 5,5 Z"
         style="fill:#000000;fill-opacity:1;fill-rule:evenodd;stroke:#000000;stroke-width:1pt;stroke-opacity:1"
         transform="matrix(-0.4,0,0,-0.4,-4,0)"
         inkscape:connector-curvature="0" />
    </marker>
    <marker
       inkscape:stockid="Arrow1Mend"
       orient="auto"
       refY="0"
       refX="0"
       id="Arrow1Mend"
       style="overflow:visible"
       inkscape:isstock="true">
      <path
         id="path840"
         d="M 0,0 5,-5 -12.5,0 5,5 Z"
         style="fill:#000000;fill-opacity:1;fill-rule:evenodd;stroke:#000000;stroke-width:1pt;stroke-opacity:1"
         transform="matrix(-0.4,0,0,-0.4,-4,0)"
         inkscape:connector-curvature="0" />
    </marker>
    <marker
       inkscape:stockid="TriangleOutL"
       orient="auto"
       refY="0"
       refX="0"
       id="TriangleOutL"
       style="overflow:visible"
       inkscape:isstock="true">
      <path
         id="path973"
         d="M 5.77,0 -2.88,5 V -5 Z"
         style="fill:#000000;fill-opacity:1;fill-rule:evenodd;stroke:#000000;stroke-width:1pt;stroke-opacity:1"
         transform="scale(0.8)"
         inkscape:connector-curvature="0" />
    </marker>
    <marker
       inkscape:isstock="true"
       style="overflow:visible"
       id="marker4422"
       refX="0"
       refY="0"
       orient="auto"
       inkscape:stockid="Arrow2Send">
      <path
         transform="matrix(-0.3,0,0,-0.3,0.69,0)"
         d="M 8.7185878,4.0337352 -2.2072895,0.01601326 8.7185884,-4.0017078 c -1.7454984,2.3720609 -1.7354408,5.6174519 -6e-7,8.035443 z"
         style="fill:#000000;fill-opacity:1;fill-rule:evenodd;stroke:#000000;stroke-width:0.625;stroke-linejoin:round;stroke-opacity:1"
         id="path4420"
         inkscape:connector-curvature="0" />
    </marker>
    <marker
       inkscape:isstock="true"
       style="overflow:visible"
       id="marker4292"
       refX="0"
       refY="0"
       orient="auto"
       inkscape:stockid="Arrow2Send">
      <path
         transform="matrix(-0.3,0,0,-0.3,0.69,0)"
         d="M 8.7185878,4.0337352 -2.2072895,0.01601326 8.7185884,-4.0017078 c -1.7454984,2.3720609 -1.7354408,5.6174519 -6e-7,8.035443 z"
         style="fill:#000000;fill-opacity:1;fill-rule:evenodd;stroke:#000000;stroke-width:0.625;stroke-linejoin:round;stroke-opacity:1"
         id="path4290"
         inkscape:connector-curvature="0" />
    </marker>
    <marker
       inkscape:isstock="true"
       style="overflow:visible"
       id="marker4180"
       refX="0"
       refY="0"
       orient="auto"
       inkscape:stockid="Arrow2Send">
      <path
         transform="matrix(-0.3,0,0,-0.3,0.69,0)"
         d="M 8.7185878,4.0337352 -2.2072895,0.01601326 8.7185884,-4.0017078 c -1.7454984,2.3720609 -1.7354408,5.6174519 -6e-7,8.035443 z"
         style="fill:#000000;fill-opacity:1;fill-rule:evenodd;stroke:#000000;stroke-width:0.625;stroke-linejoin:round;stroke-opacity:1"
         id="path4178"
         inkscape:connector-curvature="0" />
    </marker>
    <marker
       inkscape:stockid="Arrow2Send"
       orient="auto"
       refY="0"
       refX="0"
       id="marker3449"
       style="overflow:visible"
       inkscape:isstock="true">
      <path
         id="path3447"
         style="fill:#000000;fill-opacity:1;fill-rule:evenodd;stroke:#000000;stroke-width:0.625;stroke-linejoin:round;stroke-opacity:1"
         d="M 8.7185878,4.0337352 -2.2072895,0.01601326 8.7185884,-4.0017078 c -1.7454984,2.3720609 -1.7354408,5.6174519 -6e-7,8.035443 z"
         transform="matrix(-0.3,0,0,-0.3,0.69,0)"
         inkscape:connector-curvature="0" />
    </marker>
    <marker
       inkscape:stockid="Arrow2Send"
       orient="auto"
       refY="0"
       refX="0"
       id="marker3367"
       style="overflow:visible"
       inkscape:isstock="true">
      <path
         id="path3365"
         style="fill:#000000;fill-opacity:1;fill-rule:evenodd;stroke:#000000;stroke-width:0.625;stroke-linejoin:round;stroke-opacity:1"
         d="M 8.7185878,4.0337352 -2.2072895,0.01601326 8.7185884,-4.0017078 c -1.7454984,2.3720609 -1.7354408,5.6174519 -6e-7,8.035443 z"
         transform="matrix(-0.3,0,0,-0.3,0.69,0)"
         inkscape:connector-curvature="0" />
    </marker>
    <marker
       inkscape:stockid="Arrow2Send"
       orient="auto"
       refY="0"
       refX="0"
       id="marker2075"
       style="overflow:visible"
       inkscape:isstock="true">
      <path
         id="path2073"
         style="fill:#f1c40f;fill-opacity:1;fill-rule:evenodd;stroke:#f1c40f;stroke-width:0.625;stroke-linejoin:round;stroke-opacity:1"
         d="M 8.7185878,4.0337352 -2.2072895,0.01601326 8.7185884,-4.0017078 c -1.7454984,2.3720609 -1.7354408,5.6174519 -6e-7,8.035443 z"
         transform="matrix(-0.3,0,0,-0.3,0.69,0)"
         inkscape:connector-curvature="0" />
    </marker>
    <marker
       inkscape:stockid="TriangleOutS"
       orient="auto"
       refY="0"
       refX="0"
       id="TriangleOutS"
       style="overflow:visible"
       inkscape:isstock="true">
      <path
         id="path979"
         d="M 5.77,0 -2.88,5 V -5 Z"
         style="fill:#000000;fill-opacity:1;fill-rule:evenodd;stroke:#000000;stroke-width:1pt;stroke-opacity:1"
         transform="scale(0.2)"
         inkscape:connector-curvature="0" />
    </marker>
    <marker
       inkscape:stockid="TriangleOutM"
       orient="auto"
       refY="0"
       refX="0"
       id="TriangleOutM"
       style="overflow:visible"
       inkscape:isstock="true">
      <path
         id="path976"
         d="M 5.77,0 -2.88,5 V -5 Z"
         style="fill:#000000;fill-opacity:1;fill-rule:evenodd;stroke:#000000;stroke-width:1pt;stroke-opacity:1"
         transform="scale(0.4)"
         inkscape:connector-curvature="0" />
    </marker>
  </defs>
  <sodipodi:namedview
     id="base"
     pagecolor="#ffffff"
     bordercolor="#666666"
     borderopacity="1.0"
     inkscape:pageopacity="0.0"
     inkscape:pageshadow="2"
     inkscape:zoom="1.8021653"
     inkscape:cx="208.36046"
     inkscape:cy="187.55216"
     inkscape:document-units="mm"
     inkscape:current-layer="layer1"
     showgrid="false"
     showguides="false"
     inkscape:window-width="1920"
     inkscape:window-height="1007"
     inkscape:window-x="1920"
     inkscape:window-y="0"
     inkscape:window-maximized="1"
     fit-margin-top="0"
     fit-margin-left="0"
     fit-margin-right="0"
     fit-margin-bottom="0"
     inkscape:showpageshadow="2"
     inkscape:pagecheckerboard="0"
     inkscape:deskcolor="#d1d1d1" />
  <metadata
     id="metadata5">
    <rdf:RDF>
      <cc:Work
         rdf:about="">
        <dc:format>image/svg+xml</dc:format>
        <dc:type
           rdf:resource="http://purl.org/dc/dcmitype/StillImage" />
      </cc:Work>
    </rdf:RDF>
  </metadata>
  <g
     inkscape:label="Layer 1"
     inkscape:groupmode="layer"
     id="layer1"
     transform="translate(-78.801817,-55.938536)">
    <g
       id="g9698"
       inkscape:label="Arrows"
       style="display:inline"
       transform="translate(2.9546391,0.99508123)">
      <g
         id="g10868"
         inkscape:label="black">
        <path
           id="path10437"
           style="fill:currentColor;stroke-linecap:round"
           d="m 124.75595,61.535094 a 0.38249999,0.38249999 0 0 0 -0.39275,0.375084 l -0.62657,25.883433 c -0.17383,-0.05054 -0.33994,-0.133724 -0.48878,-0.248908 a 0.07172567,0.07172567 0 0 0 -0.0857,0 v 4.31e-4 a 0.07172567,0.07172567 0 0 0 -0.0254,0.07967 l 0.86127,2.529561 a 0.07172567,0.07172567 0 0 0 0.13479,0.0039 l 0.98229,-2.484345 a 0.07172567,0.07172567 0 0 0 -0.10723,-0.08613 c -0.1577,0.107489 -0.33005,0.181916 -0.50772,0.223931 l 0.62873,-25.883864 a 0.38249999,0.38249999 0 0 0 -0.37293,-0.39274 z" />
        <path
           id="path10451"
           style="fill:currentColor;stroke-linecap:round"
           d="m 118.11897,57.43543 a 0.07172617,0.07172617 0 0 0 -0.0564,0.125315 c 0.14287,0.126095 0.25741,0.27399 0.34192,0.435374 l -34.217118,7.838023 a 0.38249999,0.38249999 0 0 0 -0.286804,0.456906 0.38249999,0.38249999 0 0 0 0.456906,0.288957 l 34.217976,-7.837592 c -0.006,0.180211 -0.0455,0.361029 -0.12014,0.533129 a 0.07172617,0.07172617 0 0 0 0.1055,0.08957 l 2.23802,-1.458998 a 0.07172617,0.07172617 0 0 0 -0.0293,-0.130913 z" />
        <path
           id="path10465"
           style="fill:currentColor;stroke-linecap:round"
           d="m 120.95601,59.591198 a 0.38249999,0.38249999 0 0 0 -0.14944,0.0043 L 86.590747,67.43309 c 0.0061,-0.180876 0.04533,-0.361909 0.120148,-0.53442 a 0.07172617,0.07172617 0 0 0 -0.04694,-0.09776 0.07172617,0.07172617 0 0 0 -0.05857,0.0095 l -2.23802,1.458998 a 0.07172617,0.07172617 0 0 0 0.02928,0.130914 l 2.65014,0.339772 a 0.07172617,0.07172617 0 0 0 0.05684,-0.124885 c -0.143278,-0.12648 -0.258622,-0.275368 -0.343207,-0.437541 L 120.9784,60.341799 a 0.38249999,0.38249999 0 0 0 0.28723,-0.459059 0.38249999,0.38249999 0 0 0 -0.30962,-0.291542 z" />
        <path
           id="path10493"
           style="fill:currentColor;stroke-linecap:round"
           d="m 121.61014,95.964516 a 0.07172567,0.07172567 0 0 0 -0.0555,0.03531 l -1.29665,2.336205 a 0.07172567,0.07172567 0 0 0 0.0956,0.09948 c 0.1702,-0.08614 0.35046,-0.137963 0.53184,-0.156752 l -3.16087,20.360081 a 0.38249999,0.38249999 0 0 0 0.32039,0.43753 0.38249999,0.38249999 0 0 0 0.43537,-0.32039 l 3.16088,-20.359657 c 0.1651,0.07248 0.31818,0.175712 0.45044,0.308767 a 0.07172567,0.07172567 0 0 0 0.12144,-0.0646 l -0.52537,-2.619134 a 0.07172567,0.07172567 0 0 0 -0.0607,-0.05641 0.07172567,0.07172567 0 0 0 -0.0168,-4.31e-4 z" />
        <path
           id="path10507"
           style="fill:currentColor;stroke-linecap:round"
           d="m 123.56954,96.275436 a 0.38249999,0.38249999 0 0 0 -0.31738,0.318241 l -3.16087,20.361803 c -0.16513,-0.0725 -0.31817,-0.17612 -0.45045,-0.30919 a 0.07172617,0.07172617 0 0 0 -0.0844,-0.0138 v 4.3e-4 a 0.07172617,0.07172617 0 0 0 -0.037,0.0779 l 0.52753,2.61914 a 0.07172617,0.07172617 0 0 0 0.13264,0.0194 l 1.29492,-2.33577 a 0.07172617,0.07172617 0 0 0 -0.0956,-0.0978 c -0.1702,0.0862 -0.35045,0.13797 -0.53184,0.15676 l 3.16088,-20.36181 a 0.38249999,0.38249999 0 0 0 -0.31867,-0.435374 0.38249999,0.38249999 0 0 0 -0.11972,0 z" />
        <path
           id="path10521"
           style="fill:currentColor;stroke-linecap:round"
           d="m 86.353466,112.00101 a 0.38249999,0.38249999 0 0 0 -0.349677,0.28422 0.38249999,0.38249999 0 0 0 0.273455,0.46681 l 27.034096,7.14771 c -0.0893,0.15702 -0.20822,0.29913 -0.35442,0.41685 a 0.07172567,0.07172567 0 0 0 0.053,0.12661 l 2.65789,-0.25192 a 0.07172567,0.07172567 0 0 0 0.0353,-0.12876 l -2.18936,-1.53307 a 0.07172567,0.07172567 0 0 0 -0.10766,0.084 c 0.0679,0.17829 0.101,0.36335 0.10077,0.54604 l -27.034097,-7.14599 a 0.38249999,0.38249999 0 0 0 -0.119287,-0.0125 z" />
        <path
           id="path9128"
           style="display:inline;fill:currentColor;stroke-linecap:round"
           d="m 80.23067,70.753738 a 0.07172567,0.07172567 0 0 0 -0.06675,0.04909 l -0.824239,2.540758 a 0.07172567,0.07172567 0 0 0 0.113257,0.07838 c 0.150466,-0.117106 0.317434,-0.202606 0.491787,-0.255798 l 1.369857,35.239882 a 0.38249999,0.38249999 0 0 0 0.396185,0.36733 0.38249999,0.38249999 0 0 0 0.367334,-0.39662 L 80.708677,73.136453 c 0.176181,0.03948 0.346619,0.111668 0.502123,0.217041 a 0.07172567,0.07172567 0 0 0 0.107659,-0.0857 l -1.019748,-2.470995 a 0.07172567,0.07172567 0 0 0 -0.06804,-0.04306 z" />
        <path
           id="path10535"
           style="fill:currentColor;stroke-linecap:round;-inkscape-stroke:none"
           d="m 88.232335,113.99615 -2.658322,0.24977 a 0.07172617,0.07172617 0 0 0 -0.03488,0.13091 l 2.189358,1.53134 a 0.07172617,0.07172617 0 0 0 0.107659,-0.084 c -0.06778,-0.17787 -0.100844,-0.36229 -0.100769,-0.54433 l 27.034089,7.14599 a 0.38249999,0.38249999 0 0 0 0.46897,-0.27173 0.38249999,0.38249999 0 0 0 -0.27346,-0.46853 l -27.03409,-7.14599 c 0.08932,-0.15692 0.208127,-0.29862 0.354415,-0.41643 a 0.07172617,0.07172617 0 0 0 -0.05297,-0.12703 z" />
      </g>
      <g
         id="g10858"
         inkscape:label="colored">
        <path
           id="path10479"
           style="color:#000000;display:inline;fill:#f1c40f;stroke-linecap:round;-inkscape-stroke:none"
           d="m 82.369213,70.824363 a 0.38249999,0.38249999 0 0 0 -0.367333,0.396186 l 1.369425,35.240741 c -0.176174,-0.0395 -0.346618,-0.11168 -0.502122,-0.21704 a 0.07172567,0.07172567 0 0 0 -0.107659,0.0857 l 1.019748,2.47099 a 0.07172567,0.07172567 0 0 0 0.134789,-0.006 l 0.824239,-2.54119 a 0.07172567,0.07172567 0 0 0 -0.05469,-0.0917 0.07172567,0.07172567 0 0 0 -0.05857,0.0138 c -0.150467,0.1171 -0.317439,0.20262 -0.491788,0.2558 L 82.76583,71.191266 a 0.38249999,0.38249999 0 0 0 -0.396617,-0.366903 z" />
        <path
           id="path10423"
           style="color:#000000;display:inline;fill:#2980b9;stroke-linecap:round;-inkscape-stroke:none"
           d="m 122.66219,61.4649 a 0.07172567,0.07172567 0 0 0 -0.0685,0.04479 l -0.98229,2.484344 a 0.07172567,0.07172567 0 0 0 0.10723,0.08613 c 0.15719,-0.107141 0.32875,-0.181411 0.50557,-0.223501 l -0.62658,25.883433 a 0.38249999,0.38249999 0 0 0 0.37294,0.390588 0.38249999,0.38249999 0 0 0 0.39058,-0.372932 l 0.62873,-25.883002 c 0.17302,0.05058 0.33824,0.133642 0.48662,0.248478 a 0.07172567,0.07172567 0 0 0 0.11326,-0.0801 l -0.86127,-2.529561 a 0.07172567,0.07172567 0 0 0 -0.0663,-0.04866 z" />
        <path
           id="path10549"
           style="color:#000000;fill:#27ae60;stroke-linecap:round;-inkscape-stroke:none"
           d="m 119.61328,93.582233 -2.6622,0.224362 a 0.07172567,0.07172567 0 0 0 -0.0293,0.134789 c 0.16573,0.093 0.30887,0.21362 0.42547,0.353122 L 85.543008,109.15019 a 0.38249999,0.38249999 0 0 0 -0.183452,0.50815 0.38249999,0.38249999 0 0 0 0.507721,0.18345 L 117.67283,94.987401 c 0.0322,0.177949 0.0322,0.363289 -0.005,0.54777 a 0.07172567,0.07172567 0 0 0 0.12101,0.0646 l 1.88102,-1.896525 a 0.07172567,0.07172567 0 0 0 -0.0568,-0.121009 z" />
        <path
           id="path10563"
           style="color:#000000;fill:#e74c3c;stroke-linecap:round;-inkscape-stroke:none"
           d="m 120.17827,95.317269 a 0.38249999,0.38249999 0 0 0 -0.14512,0.03617 L 88.227598,110.20826 c -0.03197,-0.17748 -0.03206,-0.36209 0.0047,-0.54604 a 0.07172617,0.07172617 0 0 0 -0.06417,-0.0861 0.07172617,0.07172617 0 0 0 -0.05684,0.0194 l -1.881022,1.89652 a 0.07172617,0.07172617 0 0 0 0.05684,0.12316 l 2.662198,-0.22651 a 0.07172617,0.07172617 0 0 0 0.02928,-0.13264 c -0.166292,-0.0933 -0.309949,-0.21431 -0.426761,-0.35441 L 120.35742,96.046768 a 0.38249999,0.38249999 0 0 0 0.1856,-0.507721 0.38249999,0.38249999 0 0 0 -0.21704,-0.199385 0.38249999,0.38249999 0 0 0 -0.14771,-0.02239 z" />
      </g>
    </g>
    <circle
       style="display:inline;fill:#c8c8c8;fill-opacity:1;stroke:#9b59b6;stroke-width:0.819;stroke-miterlimit:4;stroke-dasharray:none;stroke-opacity:1"
       id="circle821"
       cx="126.12573"
       cy="94.041267"
       r="2.1984684"
       inkscape:label="Special Vertex" />
    <g
       id="g10701"
       inkscape:label="Normal vertices"
       transform="translate(2.9546391,0.99508123)">
      <circle
         r="2.1984684"
         cy="58.346504"
         cx="123.77247"
         id="circle867"
         style="display:inline;fill:#808080;fill-opacity:1;stroke:currentColor;stroke-width:0.75;stroke-miterlimit:4;stroke-dasharray:none;stroke-opacity:1" />
      <circle
         r="2.1984684"
         cy="111.98893"
         cx="82.947037"
         id="circle823"
         style="display:inline;fill:#808080;fill-opacity:1;stroke:currentColor;stroke-width:0.75;stroke-miterlimit:4;stroke-dasharray:none;stroke-opacity:1" />
      <circle
         style="display:inline;fill:#808080;fill-opacity:1;stroke:currentColor;stroke-width:0.75;stroke-miterlimit:4;stroke-dasharray:none;stroke-opacity:1"
         id="circle825"
         cx="81.209785"
         cy="67.834587"
         r="2.1984684" />
      <circle
         style="display:inline;fill:#808080;fill-opacity:1;stroke:currentColor;stroke-width:0.75;stroke-miterlimit:4;stroke-dasharray:none;stroke-opacity:1"
         id="circle827"
         cx="118.29343"
         cy="122.07835"
         r="2.1984684" />
    </g>
    <path
       id="path10743"
       style="color:#000000;fill:#2980b9;stroke-linecap:round;stroke-linejoin:round;stroke-dasharray:0.483333, 1.45;-inkscape-stroke:none"
       d="m 122.2626,83.639566 a 0.04531703,0.04531703 0 0 0 -0.0267,0.07622 c 0.10272,0.09672 0.18042,0.211827 0.23125,0.336328 a 0.24166666,0.24166666 0 0 0 -0.1279,-0.0043 l -0.0349,0.0078 a 0.24169083,0.24169083 0 0 0 -0.004,0.0022 l -0.22264,0.05857 a 0.24169083,0.24169083 0 0 0 -0.004,0.0017 l -0.20714,0.059 a 0.24166666,0.24166666 0 0 0 -0.16579,0.298432 0.24166666,0.24166666 0 0 0 0.29886,0.166226 l 0.2067,-0.05857 0.21705,-0.05857 0.0353,-0.0078 a 0.24166666,0.24166666 0 0 0 0.0762,-0.03445 c -0.009,0.110775 -0.0368,0.220778 -0.0861,0.325131 a 0.04531703,0.04531703 0 0 0 0.0646,0.05857 l 1.44306,-0.875054 a 0.04531703,0.04531703 0 0 0 -0.0155,-0.08397 l -1.6657,-0.267426 a 0.04531703,0.04531703 0 0 0 -0.0125,0 z m 0.0512,0.09775 0.007,0.0013 c 0.092,0.100759 0.16088,0.216764 0.20499,0.340634 a 0.24166666,0.24166666 0 0 0 -0.0116,-0.0073 c -0.0436,-0.12016 -0.11086,-0.233659 -0.20025,-0.334605 z m 0.26958,0.702369 c -0.003,0.105932 -0.0237,0.212327 -0.062,0.314365 l -0.008,0.0047 c 0.0365,-0.101567 0.0564,-0.205431 0.0603,-0.308767 a 0.24166666,0.24166666 0 0 0 0.01,-0.01033 z m -2.03605,0.213596 a 0.24166666,0.24166666 0 0 0 -0.0736,0.01766 l -0.068,0.02713 a 0.24169083,0.24169083 0 0 0 -0.004,0.0022 l -0.18776,0.08182 a 0.24169083,0.24169083 0 0 0 -0.004,0.0022 l -0.1856,0.08613 a 0.24169083,0.24169083 0 0 0 -0.004,0.0017 0.24166666,0.24166666 0 0 0 -0.11326,0.322547 0.24166666,0.24166666 0 0 0 0.3204,0.113258 l 0.18173,-0.08225 0.18345,-0.08182 0.0663,-0.02756 a 0.24166666,0.24166666 0 0 0 0.13091,-0.314365 0.24166666,0.24166666 0 0 0 -0.24288,-0.148569 z m -1.67862,0.892279 a 0.24166666,0.24166666 0 0 0 -0.1447,0.03747 l -0.0818,0.05469 a 0.24169083,0.24169083 0 0 0 -0.004,0.0022 l -0.1546,0.1012 a 0.24169083,0.24169083 0 0 0 -0.004,0.0022 l -0.15029,0.105506 a 0.24169083,0.24169083 0 0 0 -0.004,0.0022 l -0.0116,0.0095 a 0.24166666,0.24166666 0 0 0 -0.0564,0.335897 0.24166666,0.24166666 0 0 0 0.33762,0.05684 l 0.0103,-0.0078 0.14814,-0.10163 0.15029,-0.10163 0.0823,-0.05082 a 0.24166666,0.24166666 0 0 0 0.0724,-0.333744 0.24166666,0.24166666 0 0 0 -0.18948,-0.111966 z m -1.56838,1.18942 a 0.24166666,0.24166666 0 0 0 -0.13479,0.06503 v -4.31e-4 l -0.0818,0.07838 a 0.24169083,0.24169083 0 0 0 -0.004,0.0039 l -0.11885,0.117133 a 0.24169083,0.24169083 0 0 0 -0.004,0.0039 l -0.11713,0.119286 a 0.24169083,0.24169083 0 0 0 -0.002,0.0017 l -0.0237,0.02369 a 0.24166666,0.24166666 0 0 0 0.01,0.341926 0.24166666,0.24166666 0 0 0 0.34193,-0.0082 l 0.0194,-0.0211 0.11541,-0.117564 0.11713,-0.11498 0.0822,-0.07838 a 0.24166666,0.24166666 0 0 0 0.008,-0.341495 0.24166666,0.24166666 0 0 0 -0.20713,-0.07278 z m -1.21052,1.455553 a 0.24166666,0.24166666 0 0 0 -0.0629,0.0017 0.24166666,0.24166666 0 0 0 -0.15632,0.09775 l -0.0779,0.107228 a 0.24169083,0.24169083 0 0 0 -0.004,0.0082 l -0.17354,0.257521 a 0.24169083,0.24169083 0 0 0 -0.004,0.006 l -0.0211,0.03316 a 0.24166666,0.24166666 0 0 0 0.0758,0.332021 0.24166666,0.24166666 0 0 0 0.33417,-0.07407 l 0.0177,-0.03144 0.16967,-0.251922 0.0762,-0.105506 a 0.24166666,0.24166666 0 0 0 -0.0564,-0.335897 0.24166666,0.24166666 0 0 0 -0.1167,-0.04479 z m -0.96506,1.667426 a 0.24166666,0.24166666 0 0 0 -0.2502,0.133067 l -0.004,0.01206 a 0.24169083,0.24169083 0 0 0 -0.004,0.0039 l -0.11886,0.26355 a 0.24169083,0.24169083 0 0 0 -0.002,0.006 l -0.0724,0.167948 a 0.24166666,0.24166666 0 0 0 0.12919,0.316088 0.24166666,0.24166666 0 0 0 0.31609,-0.126608 l 0.0702,-0.166225 0.11757,-0.257952 0.004,-0.0078 a 0.24166666,0.24166666 0 0 0 -0.11325,-0.322117 0.24166666,0.24166666 0 0 0 -0.0719,-0.02196 z m -0.71572,1.806522 a 0.24166666,0.24166666 0 0 0 -0.22608,0.172254 l -0.004,0.01593 a 0.24169083,0.24169083 0 0 0 -0.002,0.0039 l -0.068,0.249769 a 0.24169083,0.24169083 0 0 0 -0.002,0.006 l -0.0508,0.201108 a 0.24166666,0.24166666 0 0 0 0.17398,0.292833 0.24166666,0.24166666 0 0 0 0.29498,-0.173547 l 0.0504,-0.199385 0.0667,-0.245894 0.004,-0.01206 a 0.24166666,0.24166666 0 0 0 -0.16192,-0.300585 0.24166666,0.24166666 0 0 0 -0.0749,-0.01033 z m -0.35657,1.89308 a 0.24166666,0.24166666 0 0 0 -0.2756,0.20326 v 0.0017 a 0.24169083,0.24169083 0 0 0 0,0.0039 l -0.0271,0.209289 a 0.24169083,0.24169083 0 0 0 0,0.0039 l -0.0237,0.20283 a 0.24169083,0.24169083 0 0 0 0,0.0043 l -0.008,0.06417 a 0.24166666,0.24166666 0 0 0 0.21661,0.265703 0.24166666,0.24166666 0 0 0 0.26355,-0.21661 l 0.008,-0.0646 0.0215,-0.199385 0.0271,-0.204983 a 0.24166666,0.24166666 0 0 0 -0.20283,-0.273454 z m -0.16622,1.923655 a 0.24166666,0.24166666 0 0 0 -0.2403,0.242448 v 0.04479 a 0.24169083,0.24169083 0 0 0 0,0.0039 l 0.004,0.187758 a 0.24169083,0.24169083 0 0 0 0,0.0056 l 0.006,0.136943 a 0.24169083,0.24169083 0 0 0 0,0.0056 l 0.008,0.113688 a 0.24166666,0.24166666 0 0 0 0.2558,0.226515 0.24166666,0.24166666 0 0 0 0.22651,-0.257951 l -0.008,-0.111535 -0.004,-0.132636 -0.006,-0.181729 v -0.04091 a 0.24166666,0.24166666 0 0 0 -0.24202,-0.242018 z" />
    <path
       id="path10757"
       style="color:#000000;fill:#f1c40f;stroke-linecap:round;stroke-linejoin:round;stroke-dasharray:0.483333, 1.45;-inkscape-stroke:none"
       d="m 89.544525,96.528099 -1.687666,0.06287 a 0.04531703,0.04531703 0 0 0 -0.02541,0.0801 l 1.326362,1.044725 a 0.04531703,0.04531703 0 0 0 0.07019,-0.04866 c -0.124707,-0.393136 0.01247,-0.819821 0.343648,-1.056783 a 0.04531703,0.04531703 0 0 0 -0.02713,-0.08225 z m -0.05297,0.09216 c -0.284538,0.247502 -0.404216,0.620567 -0.322117,0.992188 l -0.0047,-0.0039 c -0.08703,-0.365473 0.03637,-0.748342 0.320394,-0.987881 z m 0.200246,0.434944 a 0.24166666,0.24166666 0 0 0 -0.06158,0.01593 0.24166666,0.24166666 0 0 0 -0.130483,0.130914 0.24166666,0.24166666 0 0 0 0.130483,0.316518 l 0.148569,0.06244 0.259674,0.113258 0.02756,0.01163 a 0.24166666,0.24166666 0 0 0 0.320394,-0.118856 0.24166666,0.24166666 0 0 0 -0.119286,-0.320393 l -0.02928,-0.01163 a 0.24169083,0.24169083 0 0 0 -0.0039,-0.0022 l -0.26355,-0.115411 a 0.24169083,0.24169083 0 0 0 -0.0022,-0.0017 l -0.152446,-0.06244 a 0.24166666,0.24166666 0 0 0 -0.124023,-0.01809 z m 1.766903,0.841034 a 0.24166666,0.24166666 0 0 0 -0.207136,0.122301 0.24166666,0.24166666 0 0 0 0.09172,0.329868 l 0.150293,0.08397 0.224792,0.130913 0.03704,0.02153 a 0.24166666,0.24166666 0 0 0 0.332021,-0.08182 0.24166666,0.24166666 0 0 0 -0.08182,-0.332021 l -0.03919,-0.02369 a 0.24169083,0.24169083 0 0 0 -0.0039,-0.0017 l -0.228668,-0.133067 a 0.24169083,0.24169083 0 0 0 -0.0039,-0.0017 l -0.150292,-0.08397 a 0.24166666,0.24166666 0 0 0 -0.121009,-0.03057 z m 1.657952,1.035251 a 0.24166666,0.24166666 0 0 0 -0.220486,0.100769 0.24166666,0.24166666 0 0 0 0.05857,0.337619 l 0.01378,0.0099 0.191203,0.140818 0.177853,0.132636 a 0.24166666,0.24166666 0 0 0 0.337619,-0.04866 0.24166666,0.24166666 0 0 0 -0.04866,-0.33805 l -0.177856,-0.13479 a 0.24169083,0.24169083 0 0 0 -0.0017,-0.0017 L 93.25147,98.989211 a 0.24169083,0.24169083 0 0 0 -0.0022,-0.0022 l -0.0155,-0.01163 a 0.24166666,0.24166666 0 0 0 -0.117134,-0.04393 z m 1.469334,1.213532 a 0.24166666,0.24166666 0 0 0 -0.166657,0.0784 0.24166666,0.24166666 0 0 0 0.01593,0.34021 l 0.09172,0.0818 0.14857,0.14081 0.108951,0.10336 a 0.24166666,0.24166666 0 0 0 0.341926,-0.01 0.24166666,0.24166666 0 0 0 -0.0078,-0.3415 l -0.111104,-0.10378 a 0.24169083,0.24169083 0 0 0 -0.0022,-0.002 l -0.152446,-0.14297 a 0.24169083,0.24169083 0 0 0 -0.0017,-0.002 l -0.09173,-0.0818 a 0.24166666,0.24166666 0 0 0 -0.173546,-0.0612 z m 1.383205,1.37287 a 0.24166666,0.24166666 0 0 0 -0.174838,0.0611 0.24166666,0.24166666 0 0 0 -0.01938,0.34192 l 0.04866,0.0525 0.207136,0.24245 0.05297,0.0642 a 0.24166666,0.24166666 0 0 0 0.339772,0.0332 0.24166666,0.24166666 0 0 0 0.03316,-0.33977 l -0.05469,-0.0685 a 0.24169083,0.24169083 0 0 0 -0.0039,-0.002 l -0.20929,-0.24633 a 0.24169083,0.24169083 0 0 0 -0.0017,-0.004 l -0.05082,-0.0547 a 0.24166666,0.24166666 0 0 0 -0.167087,-0.0805 z m 1.156691,1.52618 a 0.24166666,0.24166666 0 0 0 -0.118425,0.0387 0.24166666,0.24166666 0 0 0 -0.07019,0.3359 l 0.126607,0.19336 0.09388,0.15244 0.02928,0.053 a 0.24166666,0.24166666 0 0 0 0.332021,0.0857 0.24166666,0.24166666 0 0 0 0.08613,-0.32987 l -0.03144,-0.0547 a 0.24169083,0.24169083 0 0 0 -0.0022,-0.004 l -0.09732,-0.15804 a 0.24169083,0.24169083 0 0 0 -0.0039,-0.006 l -0.129191,-0.19723 a 0.24166666,0.24166666 0 0 0 -0.215319,-0.10895 z" />
    <g
       id="g10713"
       inkscape:label="Labels"
       transform="translate(2.9546391,0.99508123)">
      <text
         xml:space="preserve"
         style="font-style:normal;font-weight:normal;font-size:5.29167px;line-height:1.25;font-family:sans-serif;letter-spacing:0px;word-spacing:0px;fill:#27ae60;fill-opacity:1;stroke:none;stroke-width:0.264583"
         x="49.910107"
         y="133.70761"
         id="text4052"
         transform="rotate(-24.983419)"
         inkscape:label="e"><tspan
           sodipodi:role="line"
           id="tspan4050"
           x="49.910107"
           y="133.70761"
           style="font-style:normal;font-variant:normal;font-weight:normal;font-stretch:normal;font-size:5.29167px;font-family:'Fira Sans';-inkscape-font-specification:'Fira Sans';fill:#27ae60;fill-opacity:1;stroke-width:0.264583">e</tspan></text>
      <text
         transform="rotate(-0.02003958)"
         id="text4168"
         y="78.737717"
         x="107.59328"
         style="font-style:normal;font-weight:normal;font-size:4.40972px;line-height:1.25;font-family:sans-serif;letter-spacing:0px;word-spacing:0px;fill:#2980b9;fill-opacity:1;stroke:none;stroke-width:0.264583"
         xml:space="preserve"
         inkscape:label="e.next"><tspan
           style="font-size:4.40972px;fill:#2980b9;fill-opacity:1;stroke-width:0.264583"
           y="78.737717"
           x="107.59328"
           id="tspan4166"
           sodipodi:role="line">e.next</tspan></text>
      <text
         xml:space="preserve"
         style="font-style:normal;font-weight:normal;font-size:4.40972px;line-height:1.25;font-family:sans-serif;letter-spacing:0px;word-spacing:0px;fill:#e1b12c;fill-opacity:1;stroke:none;stroke-width:0.264583"
         x="84.659332"
         y="88.793312"
         id="text6278"
         transform="rotate(-0.02003958)"
         inkscape:label="e.prev"><tspan
           sodipodi:role="line"
           id="tspan6276"
           x="84.659332"
           y="88.793312"
           style="font-size:4.40972px;fill:#e1b12c;fill-opacity:1;stroke-width:0.264583">e.prev</tspan></text>
      <text
         transform="rotate(-24.912865)"
         id="text8022"
         y="142.12285"
         x="45.790192"
         style="font-style:normal;font-weight:normal;font-size:4.40972px;line-height:1.25;font-family:sans-serif;letter-spacing:0px;word-spacing:0px;fill:#e74c3c;fill-opacity:1;stroke:none;stroke-width:0.264583"
         xml:space="preserve"
         inkscape:label="e.twin"><tspan
           style="font-size:4.40972px;fill:#e74c3c;fill-opacity:1;stroke-width:0.264583"
           y="142.12285"
           x="45.790192"
           id="tspan8020"
           sodipodi:role="line">e.twin</tspan></text>
      <text
         transform="rotate(-0.02003958)"
         id="text8036"
         y="94.221069"
         x="127.01965"
         style="font-style:normal;font-weight:normal;font-size:4.40972px;line-height:1.25;font-family:sans-serif;letter-spacing:0px;word-spacing:0px;fill:#9b59b6;fill-opacity:1;stroke:none;stroke-width:0.264583"
         xml:space="preserve"
         inkscape:label="e.target"><tspan
           style="font-size:4.40972px;fill:#9b59b6;fill-opacity:1;stroke-width:0.264583"
           y="94.221069"
           x="127.01965"
           id="tspan8034"
           sodipodi:role="line">e.target</tspan></text>
    </g>
  </g>
</svg>
