<svg width="100.29mm" height="99.204mm" version="1.1" viewBox="0 0 71.636 70.86" xmlns="http://www.w3.org/2000/svg"><g transform="translate(-78.802 -55.939)"><g transform="translate(2.9546 .99508)" stroke-linecap="round"><g fill="currentColor"><path d="m124.76 61.535a0.3825 0.3825 0 0 0-0.39275 0.37508l-0.62657 25.883c-0.17383-0.05054-0.33994-0.13372-0.48878-0.24891a0.071726 0.071726 0 0 0-0.0857 0v4.31e-4a0.071726 0.071726 0 0 0-0.0254 0.07967l0.86127 2.5296a0.071726 0.071726 0 0 0 0.13479 0.0039l0.98229-2.4843a0.071726 0.071726 0 0 0-0.10723-0.08613c-0.1577 0.10749-0.33005 0.18192-0.50772 0.22393l0.62873-25.884a0.3825 0.3825 0 0 0-0.37293-0.39274z"/><path d="m118.12 57.435a0.071726 0.071726 0 0 0-0.0564 0.12532c0.14287 0.1261 0.25741 0.27399 0.34192 0.43537l-34.217 7.838a0.3825 0.3825 0 0 0-0.2868 0.45691 0.3825 0.3825 0 0 0 0.45691 0.28896l34.218-7.8376c-6e-3 0.18021-0.0455 0.36103-0.12014 0.53313a0.071726 0.071726 0 0 0 0.1055 0.08957l2.238-1.459a0.071726 0.071726 0 0 0-0.0293-0.13091z"/><path d="m120.96 59.591a0.3825 0.3825 0 0 0-0.14944 0.0043l-34.216 7.8376c0.0061-0.18088 0.04533-0.36191 0.12015-0.53442a0.071726 0.071726 0 0 0-0.04694-0.09776 0.071726 0.071726 0 0 0-0.05857 0.0095l-2.238 1.459a0.071726 0.071726 0 0 0 0.02928 0.13091l2.6501 0.33977a0.071726 0.071726 0 0 0 0.05684-0.12488c-0.14328-0.12648-0.25862-0.27537-0.34321-0.43754l34.218-7.8359a0.3825 0.3825 0 0 0 0.28723-0.45906 0.3825 0.3825 0 0 0-0.30962-0.29154z"/><path d="m121.61 95.965a0.071726 0.071726 0 0 0-0.0555 0.03531l-1.2966 2.3362a0.071726 0.071726 0 0 0 0.0956 0.09948c0.1702-0.08614 0.35046-0.13796 0.53184-0.15675l-3.1609 20.36a0.3825 0.3825 0 0 0 0.32039 0.43753 0.3825 0.3825 0 0 0 0.43537-0.32039l3.1609-20.36c0.1651 0.07248 0.31818 0.17571 0.45044 0.30877a0.071726 0.071726 0 0 0 0.12144-0.0646l-0.52537-2.6191a0.071726 0.071726 0 0 0-0.0607-0.05641 0.071726 0.071726 0 0 0-0.0168-4.31e-4z"/><path d="m123.57 96.275a0.3825 0.3825 0 0 0-0.31738 0.31824l-3.1609 20.362c-0.16513-0.0725-0.31817-0.17612-0.45045-0.30919a0.071726 0.071726 0 0 0-0.0844-0.0138v4.3e-4a0.071726 0.071726 0 0 0-0.037 0.0779l0.52753 2.6191a0.071726 0.071726 0 0 0 0.13264 0.0194l1.2949-2.3358a0.071726 0.071726 0 0 0-0.0956-0.0978c-0.1702 0.0862-0.35045 0.13797-0.53184 0.15676l3.1609-20.362a0.3825 0.3825 0 0 0-0.31867-0.43537 0.3825 0.3825 0 0 0-0.11972 0z"/><path d="m86.353 112a0.3825 0.3825 0 0 0-0.34968 0.28422 0.3825 0.3825 0 0 0 0.27346 0.46681l27.034 7.1477c-0.0893 0.15702-0.20822 0.29913-0.35442 0.41685a0.071726 0.071726 0 0 0 0.053 0.12661l2.6579-0.25192a0.071726 0.071726 0 0 0 0.0353-0.12876l-2.1894-1.5331a0.071726 0.071726 0 0 0-0.10766 0.084c0.0679 0.17829 0.101 0.36335 0.10077 0.54604l-27.034-7.146a0.3825 0.3825 0 0 0-0.11929-0.0125z"/><path d="m80.231 70.754a0.071726 0.071726 0 0 0-0.06675 0.04909l-0.82424 2.5408a0.071726 0.071726 0 0 0 0.11326 0.07838c0.15047-0.11711 0.31743-0.20261 0.49179-0.2558l1.3699 35.24a0.3825 0.3825 0 0 0 0.39618 0.36733 0.3825 0.3825 0 0 0 0.36733-0.39662l-1.3694-35.24c0.17618 0.03948 0.34662 0.11167 0.50212 0.21704a0.071726 0.071726 0 0 0 0.10766-0.0857l-1.0197-2.471a0.071726 0.071726 0 0 0-0.06804-0.04306z"/><path d="m88.232 114-2.6583 0.24977a0.071726 0.071726 0 0 0-0.03488 0.13091l2.1894 1.5313a0.071726 0.071726 0 0 0 0.10766-0.084c-0.06778-0.17787-0.10084-0.36229-0.10077-0.54433l27.034 7.146a0.3825 0.3825 0 0 0 0.46897-0.27173 0.3825 0.3825 0 0 0-0.27346-0.46853l-27.034-7.146c0.08932-0.15692 0.20813-0.29862 0.35442-0.41643a0.071726 0.071726 0 0 0-0.05297-0.12703z" style="-inkscape-stroke:none"/></g><path d="m82.369 70.824a0.3825 0.3825 0 0 0-0.36733 0.39619l1.3694 35.241c-0.17617-0.0395-0.34662-0.11168-0.50212-0.21704a0.071726 0.071726 0 0 0-0.10766 0.0857l1.0197 2.471a0.071726 0.071726 0 0 0 0.13479-6e-3l0.82424-2.5412a0.071726 0.071726 0 0 0-0.05469-0.0917 0.071726 0.071726 0 0 0-0.05857 0.0138c-0.15047 0.1171-0.31744 0.20262-0.49179 0.2558l-1.3694-35.24a0.3825 0.3825 0 0 0-0.39662-0.3669z" color="#000000" fill="#f1c40f" style="-inkscape-stroke:none"/><path d="m122.66 61.465a0.071726 0.071726 0 0 0-0.0685 0.04479l-0.98229 2.4843a0.071726 0.071726 0 0 0 0.10723 0.08613c0.15719-0.10714 0.32875-0.18141 0.50557-0.2235l-0.62658 25.883a0.3825 0.3825 0 0 0 0.37294 0.39059 0.3825 0.3825 0 0 0 0.39058-0.37293l0.62873-25.883c0.17302 0.05058 0.33824 0.13364 0.48662 0.24848a0.071726 0.071726 0 0 0 0.11326-0.0801l-0.86127-2.5296a0.071726 0.071726 0 0 0-0.0663-0.04866z" color="#000000" fill="#2980b9" style="-inkscape-stroke:none"/><path d="m119.61 93.582-2.6622 0.22436a0.071726 0.071726 0 0 0-0.0293 0.13479c0.16573 0.093 0.30887 0.21362 0.42547 0.35312l-31.804 14.856a0.3825 0.3825 0 0 0-0.18345 0.50815 0.3825 0.3825 0 0 0 0.50772 0.18345l31.806-14.854c0.0322 0.17795 0.0322 0.36329-5e-3 0.54777a0.071726 0.071726 0 0 0 0.12101 0.0646l1.881-1.8965a0.071726 0.071726 0 0 0-0.0568-0.12101z" color="#000000" fill="#27ae60" style="-inkscape-stroke:none"/><path d="m120.18 95.317a0.3825 0.3825 0 0 0-0.14512 0.03617l-31.806 14.855c-0.03197-0.17748-0.03206-0.36209 0.0047-0.54604a0.071726 0.071726 0 0 0-0.06417-0.0861 0.071726 0.071726 0 0 0-0.05684 0.0194l-1.881 1.8965a0.071726 0.071726 0 0 0 0.05684 0.12316l2.6622-0.22651a0.071726 0.071726 0 0 0 0.02928-0.13264c-0.16629-0.0933-0.30995-0.21431-0.42676-0.35441l31.806-14.855a0.3825 0.3825 0 0 0 0.1856-0.50772 0.3825 0.3825 0 0 0-0.21704-0.19938 0.3825 0.3825 0 0 0-0.14771-0.02239z" color="#000000" fill="#e74c3c" style="-inkscape-stroke:none"/></g><circle cx="126.13" cy="94.041" r="2.1985" fill="#c8c8c8" stroke="#9b59b6" stroke-width=".819"/><g transform="translate(2.9546 .99508)" fill="#808080" stroke="currentColor" stroke-width=".75"><circle cx="123.77" cy="58.347" r="2.1985"/><circle cx="82.947" cy="111.99" r="2.1985"/><circle cx="81.21" cy="67.835" r="2.1985"/><circle cx="118.29" cy="122.08" r="2.1985"/></g><path d="m122.26 83.64a0.045317 0.045317 0 0 0-0.0267 0.07622c0.10272 0.09672 0.18042 0.21183 0.23125 0.33633a0.24167 0.24167 0 0 0-0.1279-0.0043l-0.0349 0.0078a0.24169 0.24169 0 0 0-4e-3 0.0022l-0.22264 0.05857a0.24169 0.24169 0 0 0-4e-3 0.0017l-0.20714 0.059a0.24167 0.24167 0 0 0-0.16579 0.29843 0.24167 0.24167 0 0 0 0.29886 0.16623l0.2067-0.05857 0.21705-0.05857 0.0353-0.0078a0.24167 0.24167 0 0 0 0.0762-0.03445c-9e-3 0.11078-0.0368 0.22078-0.0861 0.32513a0.045317 0.045317 0 0 0 0.0646 0.05857l1.4431-0.87505a0.045317 0.045317 0 0 0-0.0155-0.08397l-1.6657-0.26743a0.045317 0.045317 0 0 0-0.0125 0zm0.0512 0.09775 7e-3 0.0013c0.092 0.10076 0.16088 0.21676 0.20499 0.34063a0.24167 0.24167 0 0 0-0.0116-0.0073c-0.0436-0.12016-0.11086-0.23366-0.20025-0.3346zm0.26958 0.70237c-3e-3 0.10593-0.0237 0.21233-0.062 0.31436l-8e-3 0.0047c0.0365-0.10157 0.0564-0.20543 0.0603-0.30877a0.24167 0.24167 0 0 0 0.01-0.01033zm-2.036 0.2136a0.24167 0.24167 0 0 0-0.0736 0.01766l-0.068 0.02713a0.24169 0.24169 0 0 0-4e-3 0.0022l-0.18776 0.08182a0.24169 0.24169 0 0 0-4e-3 0.0022l-0.1856 0.08613a0.24169 0.24169 0 0 0-4e-3 0.0017 0.24167 0.24167 0 0 0-0.11326 0.32255 0.24167 0.24167 0 0 0 0.3204 0.11326l0.18173-0.08225 0.18345-0.08182 0.0663-0.02756a0.24167 0.24167 0 0 0 0.13091-0.31436 0.24167 0.24167 0 0 0-0.24288-0.14857zm-1.6786 0.89228a0.24167 0.24167 0 0 0-0.1447 0.03747l-0.0818 0.05469a0.24169 0.24169 0 0 0-4e-3 0.0022l-0.1546 0.1012a0.24169 0.24169 0 0 0-4e-3 0.0022l-0.15029 0.10551a0.24169 0.24169 0 0 0-4e-3 0.0022l-0.0116 0.0095a0.24167 0.24167 0 0 0-0.0564 0.3359 0.24167 0.24167 0 0 0 0.33762 0.05684l0.0103-0.0078 0.14814-0.10163 0.15029-0.10163 0.0823-0.05082a0.24167 0.24167 0 0 0 0.0724-0.33374 0.24167 0.24167 0 0 0-0.18948-0.11197zm-1.5684 1.1894a0.24167 0.24167 0 0 0-0.13479 0.06503v-4.31e-4l-0.0818 0.07838a0.24169 0.24169 0 0 0-4e-3 0.0039l-0.11885 0.11713a0.24169 0.24169 0 0 0-4e-3 0.0039l-0.11713 0.11929a0.24169 0.24169 0 0 0-2e-3 0.0017l-0.0237 0.02369a0.24167 0.24167 0 0 0 0.01 0.34193 0.24167 0.24167 0 0 0 0.34193-0.0082l0.0194-0.0211 0.11541-0.11756 0.11713-0.11498 0.0822-0.07838a0.24167 0.24167 0 0 0 8e-3 -0.3415 0.24167 0.24167 0 0 0-0.20713-0.07278zm-1.2105 1.4556a0.24167 0.24167 0 0 0-0.0629 0.0017 0.24167 0.24167 0 0 0-0.15632 0.09775l-0.0779 0.10723a0.24169 0.24169 0 0 0-4e-3 0.0082l-0.17354 0.25752a0.24169 0.24169 0 0 0-4e-3 6e-3l-0.0211 0.03316a0.24167 0.24167 0 0 0 0.0758 0.33202 0.24167 0.24167 0 0 0 0.33417-0.07407l0.0177-0.03144 0.16967-0.25192 0.0762-0.10551a0.24167 0.24167 0 0 0-0.0564-0.3359 0.24167 0.24167 0 0 0-0.1167-0.04479zm-0.96506 1.6674a0.24167 0.24167 0 0 0-0.2502 0.13307l-4e-3 0.01206a0.24169 0.24169 0 0 0-4e-3 0.0039l-0.11886 0.26355a0.24169 0.24169 0 0 0-2e-3 6e-3l-0.0724 0.16795a0.24167 0.24167 0 0 0 0.12919 0.31609 0.24167 0.24167 0 0 0 0.31609-0.12661l0.0702-0.16622 0.11757-0.25795 4e-3 -0.0078a0.24167 0.24167 0 0 0-0.11325-0.32212 0.24167 0.24167 0 0 0-0.0719-0.02196zm-0.71572 1.8065a0.24167 0.24167 0 0 0-0.22608 0.17225l-4e-3 0.01593a0.24169 0.24169 0 0 0-2e-3 0.0039l-0.068 0.24977a0.24169 0.24169 0 0 0-2e-3 6e-3l-0.0508 0.20111a0.24167 0.24167 0 0 0 0.17398 0.29283 0.24167 0.24167 0 0 0 0.29498-0.17355l0.0504-0.19938 0.0667-0.24589 4e-3 -0.01206a0.24167 0.24167 0 0 0-0.16192-0.30058 0.24167 0.24167 0 0 0-0.0749-0.01033zm-0.35657 1.8931a0.24167 0.24167 0 0 0-0.2756 0.20326v0.0017a0.24169 0.24169 0 0 0 0 0.0039l-0.0271 0.20929a0.24169 0.24169 0 0 0 0 0.0039l-0.0237 0.20283a0.24169 0.24169 0 0 0 0 0.0043l-8e-3 0.06417a0.24167 0.24167 0 0 0 0.21661 0.2657 0.24167 0.24167 0 0 0 0.26355-0.21661l8e-3 -0.0646 0.0215-0.19938 0.0271-0.20498a0.24167 0.24167 0 0 0-0.20283-0.27345zm-0.16622 1.9237a0.24167 0.24167 0 0 0-0.2403 0.24245v0.04479a0.24169 0.24169 0 0 0 0 0.0039l4e-3 0.18776a0.24169 0.24169 0 0 0 0 0.0056l6e-3 0.13694a0.24169 0.24169 0 0 0 0 0.0056l8e-3 0.11369a0.24167 0.24167 0 0 0 0.2558 0.22652 0.24167 0.24167 0 0 0 0.22651-0.25795l-8e-3 -0.11154-4e-3 -0.13264-6e-3 -0.18173v-0.04091a0.24167 0.24167 0 0 0-0.24202-0.24202z" color="#000000" fill="#2980b9" stroke-dasharray="0.483333, 1.45" stroke-linecap="round" stroke-linejoin="round" style="-inkscape-stroke:none"/><path d="m89.545 96.528-1.6877 0.06287a0.045317 0.045317 0 0 0-0.02541 0.0801l1.3264 1.0447a0.045317 0.045317 0 0 0 0.07019-0.04866c-0.12471-0.39314 0.01247-0.81982 0.34365-1.0568a0.045317 0.045317 0 0 0-0.02713-0.08225zm-0.05297 0.09216c-0.28454 0.2475-0.40422 0.62057-0.32212 0.99219l-0.0047-0.0039c-0.08703-0.36547 0.03637-0.74834 0.32039-0.98788zm0.20025 0.43494a0.24167 0.24167 0 0 0-0.06158 0.01593 0.24167 0.24167 0 0 0-0.13048 0.13091 0.24167 0.24167 0 0 0 0.13048 0.31652l0.14857 0.06244 0.25967 0.11326 0.02756 0.01163a0.24167 0.24167 0 0 0 0.32039-0.11886 0.24167 0.24167 0 0 0-0.11929-0.32039l-0.02928-0.01163a0.24169 0.24169 0 0 0-0.0039-0.0022l-0.26355-0.11541a0.24169 0.24169 0 0 0-0.0022-0.0017l-0.15245-0.06244a0.24167 0.24167 0 0 0-0.12402-0.01809zm1.7669 0.84103a0.24167 0.24167 0 0 0-0.20714 0.1223 0.24167 0.24167 0 0 0 0.09172 0.32987l0.15029 0.08397 0.22479 0.13091 0.03704 0.02153a0.24167 0.24167 0 0 0 0.33202-0.08182 0.24167 0.24167 0 0 0-0.08182-0.33202l-0.03919-0.02369a0.24169 0.24169 0 0 0-0.0039-0.0017l-0.22867-0.13307a0.24169 0.24169 0 0 0-0.0039-0.0017l-0.15029-0.08397a0.24167 0.24167 0 0 0-0.12101-0.03057zm1.658 1.0353a0.24167 0.24167 0 0 0-0.22049 0.10077 0.24167 0.24167 0 0 0 0.05857 0.33762l0.01378 0.0099 0.1912 0.14082 0.17785 0.13264a0.24167 0.24167 0 0 0 0.33762-0.04866 0.24167 0.24167 0 0 0-0.04866-0.33805l-0.17786-0.13479a0.24169 0.24169 0 0 0-0.0017-0.0017l-0.19551-0.14082a0.24169 0.24169 0 0 0-0.0022-0.0022l-0.0155-0.01163a0.24167 0.24167 0 0 0-0.11713-0.04393zm1.4693 1.2135a0.24167 0.24167 0 0 0-0.16666 0.0784 0.24167 0.24167 0 0 0 0.01593 0.34021l0.09172 0.0818 0.14857 0.14081 0.10895 0.10336a0.24167 0.24167 0 0 0 0.34193-0.01 0.24167 0.24167 0 0 0-0.0078-0.3415l-0.1111-0.10378a0.24169 0.24169 0 0 0-0.0022-2e-3l-0.15245-0.14297a0.24169 0.24169 0 0 0-0.0017-2e-3l-0.09173-0.0818a0.24167 0.24167 0 0 0-0.17355-0.0612zm1.3832 1.3729a0.24167 0.24167 0 0 0-0.17484 0.0611 0.24167 0.24167 0 0 0-0.01938 0.34192l0.04866 0.0525 0.20714 0.24245 0.05297 0.0642a0.24167 0.24167 0 0 0 0.33977 0.0332 0.24167 0.24167 0 0 0 0.03316-0.33977l-0.05469-0.0685a0.24169 0.24169 0 0 0-0.0039-2e-3l-0.20929-0.24633a0.24169 0.24169 0 0 0-0.0017-4e-3l-0.05082-0.0547a0.24167 0.24167 0 0 0-0.16709-0.0805zm1.1567 1.5262a0.24167 0.24167 0 0 0-0.11842 0.0387 0.24167 0.24167 0 0 0-0.07019 0.3359l0.12661 0.19336 0.09388 0.15244 0.02928 0.053a0.24167 0.24167 0 0 0 0.33202 0.0857 0.24167 0.24167 0 0 0 0.08613-0.32987l-0.03144-0.0547a0.24169 0.24169 0 0 0-0.0022-4e-3l-0.09732-0.15804a0.24169 0.24169 0 0 0-0.0039-6e-3l-0.12919-0.19723a0.24167 0.24167 0 0 0-0.21532-0.10895z" color="#000000" fill="#f1c40f" stroke-dasharray="0.483333, 1.45" stroke-linecap="round" stroke-linejoin="round" style="-inkscape-stroke:none"/><g transform="translate(2.9546 .99508)" font-family="sans-serif" letter-spacing="0px" stroke-width=".26458" word-spacing="0px"><text transform="rotate(-24.983)" x="49.910107" y="133.70761" fill="#27ae60" font-size="5.2917px" style="line-height:1.25" xml:space="preserve"><tspan x="49.910107" y="133.70761" fill="#27ae60" font-family="'Fira Sans'" font-size="5.2917px" stroke-width=".26458">e</tspan></text><g font-size="4.4097px"><text transform="rotate(-.02004)" x="107.59328" y="78.737717" fill="#2980b9" style="line-height:1.25" xml:space="preserve"><tspan x="107.59328" y="78.737717" fill="#2980b9" font-size="4.4097px" stroke-width=".26458">e.next</tspan></text><text transform="rotate(-.02004)" x="84.659332" y="88.793312" fill="#e1b12c" style="line-height:1.25" xml:space="preserve"><tspan x="84.659332" y="88.793312" fill="#e1b12c" font-size="4.4097px" stroke-width=".26458">e.prev</tspan></text><text transform="rotate(-24.913)" x="45.790192" y="142.12285" fill="#e74c3c" style="line-height:1.25" xml:space="preserve"><tspan x="45.790192" y="142.12285" fill="#e74c3c" font-size="4.4097px" stroke-width=".26458">e.twin</tspan></text><text transform="rotate(-.02004)" x="127.01965" y="94.221069" fill="#9b59b6" style="line-height:1.25" xml:space="preserve"><tspan x="127.01965" y="94.221069" fill="#9b59b6" font-size="4.4097px" stroke-width=".26458">e.target</tspan></text></g></g></g></svg>
