<svg width="169.73mm" height="51.631mm" version="1.1" viewBox="0 0 282.88 86.052" xmlns="http://www.w3.org/2000/svg"><g transform="translate(-18.969 -26.009)"><g transform="translate(-5.3441 4.1727)"><path d="m127.39 31.421-68.702 61.815" fill="#27ae60" stroke="#27ae60" stroke-width="2.2495"/><g fill="currentColor" stroke-width=".26458"><circle cx="35.713" cy="39.381" r="5.3876"/><circle cx="127.65" cy="31.411" r="5.3876"/><circle cx="58.511" cy="93.065" r="5.3876"/></g><path d="m34.371 38.714 23.538 54.297" stroke="currentColor" stroke-width="2.2495"/><path d="m34.568 39.24 93.598-7.4276" stroke="currentColor" stroke-width="2.2495"/><circle cx="141.4" cy="94.927" r="5.3876" fill="currentColor" stroke-width=".26458"/><path d="m127.58 31.925 13.845 64.026" stroke="currentColor" stroke-width="2.2495"/><path d="m58.103 93.41 83.165 1.6597" stroke="currentColor" stroke-width="2.2495"/></g><path d="m158.8 66.585v4.424h-15.898v2.9492h15.898v4.4235l10.203-5.8983-0.95705-0.55242z" fill="currentColor" stroke-width="2.949" style="-inkscape-stroke:none"/><g transform="translate(145.56 4.1727)"><path d="m141.82 95.01-106.04-56.044" fill="#27ae60" stroke="#27ae60" stroke-width="2.2495"/><g fill="currentColor" stroke-width=".26458"><circle cx="35.713" cy="39.381" r="5.3876"/><circle cx="127.65" cy="31.411" r="5.3876"/><circle cx="58.511" cy="93.065" r="5.3876"/></g><path d="m34.371 38.714 23.538 54.297" stroke="currentColor" stroke-width="2.2495"/><path d="m34.568 39.24 93.598-7.4276" stroke="currentColor" stroke-width="2.2495"/><circle cx="141.4" cy="94.927" r="5.3876" fill="currentColor" stroke-width=".26458"/><path d="m127.58 31.925 13.845 64.026" stroke="currentColor" stroke-width="2.2495"/><path d="m58.103 93.41 83.165 1.6597" stroke="currentColor" stroke-width="2.2495"/></g></g></svg>
