<svg width="177.73mm" height="54.631mm" version="1.1" viewBox="0 0 296.21 91.052" xmlns="http://www.w3.org/2000/svg"><g transform="translate(-18.969 -26.009)"><g transform="translate(5.8186 4.1727)"><g fill="currentColor" stroke-width=".26458"><circle cx="24.356" cy="42.581" r="5.3876"/><circle cx="127.65" cy="31.411" r="5.3876"/><circle cx="122.94" cy="101.52" r="5.3876"/><circle cx="51.711" cy="77.928" r="5.3876"/></g><g stroke="currentColor" stroke-width="2.2495"><path d="m23.655 42.183 27.726 36.076"/><path d="m23.833 42.411 104.33-10.598"/><path d="m127.39 31.421-3.9627 70.342"/><path d="m51.38 77.944 71.493 23.359"/></g></g><g transform="translate(169.94 4.1584)"><g fill="currentColor" stroke-width=".26458"><circle cx="24.356" cy="42.581" r="5.3876"/><circle cx="127.65" cy="31.411" r="5.3876"/><circle cx="122.94" cy="101.52" r="5.3876"/><circle cx="51.711" cy="77.928" r="5.3876"/></g><g stroke="currentColor" stroke-width="2.2495"><path d="m23.655 42.183 27.726 36.076"/><path d="m23.833 42.411 104.33-10.598"/><path d="m127.39 31.421-3.9627 70.342"/><path d="m51.38 77.944 71.493 23.359"/></g><circle cx="83.78" cy="59.804" r="5.3876" fill="currentColor" stroke-width=".26458"/><g stroke="currentColor" stroke-width="2.2495"><path d="m24.023 42.507 60.085 18.054"/><path d="m84.07 60.18 38.778 41.062"/><path d="m84.147 59.741 43.877-28.163"/><path d="m51.321 77.688 32.901-17.6"/></g></g><path d="m169.97 66.585v4.424h-15.898v2.9492h15.898v4.4235l10.203-5.8983-0.95705-0.55242z" fill="currentColor" stroke-width="2.949" style="-inkscape-stroke:none"/></g></svg>
