<svg width="169.73mm" height="51.631mm" version="1.1" viewBox="0 0 282.88 86.052" xmlns="http://www.w3.org/2000/svg"><g transform="translate(-18.969 -26.009)"><g transform="matrix(-1 0 0 1 171.77 4.1727)"><path d="m127.39 31.421-61.724 62.892" fill="#27ae60" stroke="#27ae60" stroke-width="2.2495"/><g fill="currentColor" stroke-width=".26458"><circle cx="35.713" cy="39.381" r="5.3876"/><circle cx="127.65" cy="31.411" r="5.3876"/><circle cx="66.42" cy="93.001" r="5.3876"/></g><path d="m34.371 38.714 31.808 55.316" stroke="currentColor" stroke-width="2.2495"/><path d="m34.568 39.24 93.598-7.4276" stroke="currentColor" stroke-width="2.2495"/><circle cx="141.4" cy="94.927" r="5.3876" fill="currentColor" stroke-width=".26458"/><path d="m127.58 31.925 13.845 64.026" stroke="currentColor" stroke-width="2.2495"/><path d="m66.064 94.119 75.204 0.95088" stroke="currentColor" stroke-width="2.2495"/></g><path d="m158.8 66.585v4.424h-15.898v2.9492h15.898v4.4235l10.203-5.8983-0.95705-0.55242z" fill="currentColor" stroke-width="2.949" style="-inkscape-stroke:none"/><g transform="matrix(-1 0 0 1 323.33 4.1727)"><path d="m127.39 31.421-61.724 62.892" fill="#27ae60" stroke="#2980b9" stroke-width="2.2495"/><circle cx="127.65" cy="31.411" r="5.3876" fill="currentColor" stroke-width=".26458"/><circle cx="66.42" cy="93.001" r="5.3876" fill="currentColor" stroke-width=".26458"/><g stroke-width="2.2495"><g stroke="currentColor"><path d="m34.371 38.714 31.808 55.316"/><path d="m34.568 39.24 93.598-7.4276"/><path d="m127.58 31.925 13.845 64.026"/><path d="m66.064 94.119 75.204 0.95088"/><path d="m35.615 39.552 58.664 25.053"/></g><path d="m35.615 39.552 58.664 25.053" stroke="#2980b9"/><path d="m95.016 65.132 46.736 29.882" stroke="#2980b9"/></g><g fill="currentColor" stroke-width=".26458"><circle cx="35.713" cy="39.381" r="5.3876"/><circle cx="141.4" cy="94.927" r="5.3876"/><circle cx="94.962" cy="64.528" r="5.3876"/></g></g></g></svg>
